<mxfile host="Electron" modified="2024-04-04T13:47:31.439Z" agent="Mozilla/5.0 (Macintosh; Intel Mac OS X 10_15_7) AppleWebKit/537.36 (KHTML, like Gecko) draw.io/24.1.0 Chrome/120.0.6099.109 Electron/28.1.0 Safari/537.36" etag="AYet4GPK0QdQ3_PYH8pC" version="24.1.0" type="device">
  <diagram name="Page-1" id="gXHDYxAFzSBr6VGLytEn">
    <mxGraphModel dx="1553" dy="993" grid="1" gridSize="10" guides="1" tooltips="1" connect="1" arrows="1" fold="1" page="1" pageScale="1" pageWidth="827" pageHeight="1169" background="none" math="0" shadow="0">
      <root>
        <mxCell id="0" />
        <mxCell id="1" parent="0" />
        <mxCell id="MP2px9YScLDvGAfy4hZi-11" value="" style="rounded=0;whiteSpace=wrap;html=1;fontFamily=IBM Plex Sans;fontSource=fonts%2FIBMPlexSans-Regular.woff;fontSize=14;spacingBottom=-28;spacingTop=0;labelPosition=-100;verticalLabelPosition=top;align=center;verticalAlign=bottom;spacingLeft=9;spacing=0;expand=0;recursiveResize=0;spacingRight=0;container=1;collapsible=0;strokeColor=#1192E8;fillColor=#FFFFFF;" vertex="1" parent="1">
          <mxGeometry x="130" y="130" width="1400" height="620" as="geometry">
            <mxRectangle width="670" as="alternateBounds" />
          </mxGeometry>
        </mxCell>
        <mxCell id="MP2px9YScLDvGAfy4hZi-12" value="" style="rounded=0;whiteSpace=wrap;html=1;strokeColor=none;fillColor=#1192E8;" vertex="1" parent="MP2px9YScLDvGAfy4hZi-11">
          <mxGeometry width="7" height="37" as="geometry" />
        </mxCell>
        <mxCell id="MP2px9YScLDvGAfy4hZi-13" value="&lt;b&gt;IBM Cloud&lt;/b&gt;" style="text;html=1;strokeColor=none;fillColor=none;align=left;verticalAlign=middle;whiteSpace=wrap;rounded=0;fontFamily=IBM Plex Sans;fontSource=fonts%2FIBMPlexSans-Regular.woff;fontSize=14;" vertex="1" parent="MP2px9YScLDvGAfy4hZi-11">
          <mxGeometry x="51" y="8" width="163" height="20" as="geometry" />
        </mxCell>
        <mxCell id="MP2px9YScLDvGAfy4hZi-14" value="" style="shape=image;aspect=fixed;image=data:image/svg+xml,PD94bWwgdmVyc2lvbj0iMS4wIiBlbmNvZGluZz0iVVRGLTgiPz4KPHN2ZyB3aWR0aD0iMzNweCIgaGVpZ2h0PSIyNHB4IiB2aWV3Qm94PSIwIDAgMzMgMjQiIHZlcnNpb249IjEuMSIgeG1sbnM9Imh0dHA6Ly93d3cudzMub3JnLzIwMDAvc3ZnIiB4bWxuczp4bGluaz0iaHR0cDovL3d3dy53My5vcmcvMTk5OS94bGluayI+CiAgICA8IS0tIEdlbmVyYXRvcjogU2tldGNoIDUzICg3MjUyMCkgLSBodHRwczovL3NrZXRjaGFwcC5jb20gLS0+CiAgICA8dGl0bGU+Q2xvdWQtIEJsYWNrPC90aXRsZT4KICAgIDxkZXNjPkNyZWF0ZWQgd2l0aCBTa2V0Y2guPC9kZXNjPgogICAgPGRlZnM+CiAgICAgICAgPHBvbHlnb24gaWQ9InBhdGgtMSIgcG9pbnRzPSIwIDkuNjQ4MjU3NzNlLTA1IDMxLjk2ODkxODEgOS42NDgyNTc3M2UtMDUgMzEuOTY4OTE4MSAyMyAwIDIzIj48L3BvbHlnb24+CiAgICA8L2RlZnM+CiAgICA8ZyBpZD0iUGFnZS0xIiBzdHJva2U9Im5vbmUiIHN0cm9rZS13aWR0aD0iMSIgZmlsbD0ibm9uZSIgZmlsbC1ydWxlPSJldmVub2RkIj4KICAgICAgICA8ZyBpZD0iQ2xvdWQtLUJsYWNrIiB0cmFuc2Zvcm09InRyYW5zbGF0ZSgwLjY4NzUwMCwgMC41MDAwMDApIj4KICAgICAgICAgICAgPG1hc2sgaWQ9Im1hc2stMiIgZmlsbD0id2hpdGUiPgogICAgICAgICAgICAgICAgPHVzZSB4bGluazpocmVmPSIjcGF0aC0xIj48L3VzZT4KICAgICAgICAgICAgPC9tYXNrPgogICAgICAgICAgICA8ZyBpZD0iQ2xpcC0yIj48L2c+CiAgICAgICAgICAgIDxwYXRoIGQ9Ik0xNS45OTQ5LDAuMDAwMSBDMTEuMTkzOSwtMC4wMDM5IDcuMDY3OSwzLjQwNDEgNi4xNjQ5LDguMTIwMSBDMi4wODk5LDguODU4MSAtMC42MTYxLDEyLjc2MDEgMC4xMjA5LDE2LjgzNjEgQzAuNzY1OSwyMC4zOTkxIDMuODYzOSwyMi45OTIxIDcuNDg0OSwyMy4wMDAxIEwyNC40ODQ5LDIzLjAwMDEgQzI4LjYyNzksMjIuOTkxMSAzMS45Nzc5LDE5LjYyNjEgMzEuOTY4OSwxNS40ODQxIEMzMS45NjA5LDExLjg2MzEgMjkuMzY3OSw4Ljc2NTEgMjUuODA1OSw4LjEyMDEgQzI1LjAzNDksNC4wOTcxIDIxLjg4ODksMC45NTExIDE3Ljg2NDksMC4xODAxIEMxNy4yNDg5LDAuMDYzMSAxNi42MjI5LDAuMDAyMSAxNS45OTQ5LDAuMDAwMSBNMTUuOTk0OSwyLjAwMDEgTDE1Ljk5NDksMi4wMDAxIEMxNi41MDE5LDIuMDAwMSAxNy4wMDc5LDIuMDUwMSAxNy41MDQ5LDIuMTUwMSBDMjAuNzE5OSwyLjc2NjEgMjMuMjMzOSw1LjI3NzEgMjMuODU0OSw4LjQ5MDEgTDI0LjExNDksOS44NDAxIEwyNS40NjU5LDEwLjA4MDEgQzI4LjQ1ODksMTAuNTk1MSAzMC40Njg5LDEzLjQzOTEgMjkuOTUyOSwxNi40MzMxIEMyOS40OTQ5LDE5LjA5NzEgMjcuMTY4OSwyMS4wMzMxIDI0LjQ2NTksMjEuMDAwMSBMNy40OTQ5LDIxLjAwMDEgQzQuNDU3OSwyMS4wMzcxIDEuOTY1OSwxOC42MDUxIDEuOTI3OSwxNS41NjgxIEMxLjg5MzksMTIuODY1MSAzLjgzMDksMTAuNTM4MSA2LjQ5NDksMTAuMDgwMSBMNy44MzQ5LDkuODQwMSBMOC4wOTU5LDguNDkwMSBDOC44MjE5LDQuNzA3MSAxMi4xNDE5LDEuOTc5MSAxNS45OTQ5LDIuMDAwMSIgaWQ9IkZpbGwtMSIgZmlsbD0iIzAwMDAwMCIgbWFzaz0idXJsKCNtYXNrLTIpIj48L3BhdGg+CiAgICAgICAgPC9nPgogICAgPC9nPgo8L3N2Zz4=;" vertex="1" parent="MP2px9YScLDvGAfy4hZi-11">
          <mxGeometry x="18" y="6.8400000000001455" width="27" height="19.62" as="geometry" />
        </mxCell>
        <mxCell id="MP2px9YScLDvGAfy4hZi-24" value="" style="rounded=0;whiteSpace=wrap;html=1;fontFamily=IBM Plex Sans;fontSource=fonts%2FIBMPlexSans-Regular.woff;fontSize=14;fillColor=#E6E6E6;spacingBottom=-28;spacingTop=0;labelPosition=-100;verticalLabelPosition=top;align=center;verticalAlign=bottom;spacingLeft=9;spacing=0;expand=0;recursiveResize=0;spacingRight=0;container=1;collapsible=0;strokeColor=#000000;strokeWidth=1;" vertex="1" parent="MP2px9YScLDvGAfy4hZi-11">
          <mxGeometry x="50" y="50" width="1310" height="540" as="geometry">
            <mxRectangle width="670" as="alternateBounds" />
          </mxGeometry>
        </mxCell>
        <mxCell id="MP2px9YScLDvGAfy4hZi-25" value="" style="rounded=0;whiteSpace=wrap;html=1;strokeColor=none;fillColor=#FA4D56;" vertex="1" parent="MP2px9YScLDvGAfy4hZi-24">
          <mxGeometry width="7" height="37" as="geometry" />
        </mxCell>
        <mxCell id="MP2px9YScLDvGAfy4hZi-26" value="Customer account" style="text;html=1;strokeColor=none;fillColor=none;align=left;verticalAlign=middle;whiteSpace=wrap;rounded=0;fontFamily=IBM Plex Sans;fontSource=fonts%2FIBMPlexSans-Regular.woff;fontSize=14;" vertex="1" parent="MP2px9YScLDvGAfy4hZi-24">
          <mxGeometry x="50.33" y="8" width="170" height="20" as="geometry" />
        </mxCell>
        <mxCell id="MP2px9YScLDvGAfy4hZi-27" value="" style="shape=image;aspect=fixed;image=data:image/svg+xml,PD94bWwgdmVyc2lvbj0iMS4wIiBlbmNvZGluZz0iVVRGLTgiPz4KPHN2ZyB3aWR0aD0iMjhweCIgaGVpZ2h0PSIyOXB4IiB2aWV3Qm94PSIwIDAgMjggMjkiIHZlcnNpb249IjEuMSIgeG1sbnM9Imh0dHA6Ly93d3cudzMub3JnLzIwMDAvc3ZnIiB4bWxuczp4bGluaz0iaHR0cDovL3d3dy53My5vcmcvMTk5OS94bGluayI+CiAgICA8IS0tIEdlbmVyYXRvcjogU2tldGNoIDUzICg3MjUyMCkgLSBodHRwczovL3NrZXRjaGFwcC5jb20gLS0+CiAgICA8dGl0bGU+QWNjb3VudCBHcm91cCBCbGFjazwvdGl0bGU+CiAgICA8ZGVzYz5DcmVhdGVkIHdpdGggU2tldGNoLjwvZGVzYz4KICAgIDxnIGlkPSJQYWdlLTEiIHN0cm9rZT0ibm9uZSIgc3Ryb2tlLXdpZHRoPSIxIiBmaWxsPSJub25lIiBmaWxsLXJ1bGU9ImV2ZW5vZGQiPgogICAgICAgIDxnIGlkPSJBY2NvdW50LUdyb3VwLUJsYWNrIiB0cmFuc2Zvcm09InRyYW5zbGF0ZSgwLjAwMDAwMCwgLTAuNzU4NTIxKSIgZmlsbD0iIzAwMDAwMCI+CiAgICAgICAgICAgIDxwYXRoIGQ9Ik0xNSwxMC4xMDQgTDksMTAuMTA0IEM3LjM0MywxMC4xMDQgNiwxMS40NDcgNiwxMy4xMDQgTDYsMTcuMTA0IEw4LDE3LjEwNCBMOCwxMy4xMDQgQzgsMTIuNTUyIDguNDQ4LDEyLjEwNCA5LDEyLjEwNCBMMTUsMTIuMTA0IEMxNS41NTIsMTIuMTA0IDE2LDEyLjU1MiAxNiwxMy4xMDQgTDE2LDE0LjEwNCBMMTgsMTQuMTA0IEwxOCwxMy4xMDQgQzE4LDExLjQ0NyAxNi42NTcsMTAuMTA0IDE1LDEwLjEwNCIgaWQ9IkZpbGwtMSI+PC9wYXRoPgogICAgICAgICAgICA8ZyBpZD0iR3JvdXAtNSIgdHJhbnNmb3JtPSJ0cmFuc2xhdGUoOC4wMDAwMDAsIDAuMTA0MjAwKSI+CiAgICAgICAgICAgICAgICA8cGF0aCBkPSJNNi40MDA5LDQuODk1OCBDNi40MDA5LDUuOTk5OCA1LjUwNTksNi44OTU4IDQuNDAwOSw2Ljg5NTggQzMuMjk2OSw2Ljg5NTggMi40MDA5LDUuOTk5OCAyLjQwMDksNC44OTU4IEMyLjQwMDksMy43OTE4IDMuMjk2OSwyLjg5NTggNC40MDA5LDIuODk1OCBDNS41MDU5LDIuODk1OCA2LjQwMDksMy43OTE4IDYuNDAwOSw0Ljg5NTggTTAuNDAwOSw0Ljg5NTggQzAuNDAwOSw3LjEwNDggMi4xOTE5LDguODk1OCA0LjQwMDksOC44OTU4IEM2LjYwOTksOC44OTU4IDguNDAwOSw3LjEwNDggOC40MDA5LDQuODk1OCBDOC40MDA5LDIuNjg2OCA2LjYwOTksMC44OTU4IDQuNDAwOSwwLjg5NTggQzIuMTkxOSwwLjg5NTggMC40MDA5LDIuNjg2OCAwLjQwMDksNC44OTU4IiBpZD0iRmlsbC0zIj48L3BhdGg+CiAgICAgICAgICAgIDwvZz4KICAgICAgICAgICAgPHBhdGggZD0iTTE0LDI0LjEwNDIgTDIwLDI0LjEwNDIgTDIwLDE4LjEwNDIgTDE0LDE4LjEwNDIgTDE0LDI0LjEwNDIgWiBNMjAsMjYuMTA0MiBMMTQsMjYuMTA0MiBDMTIuODk2LDI2LjEwNDIgMTIsMjUuMjA5MiAxMiwyNC4xMDQyIEwxMiwxOC4xMDQyIEMxMiwxNi45OTkyIDEyLjg5NiwxNi4xMDQyIDE0LDE2LjEwNDIgTDIwLDE2LjEwNDIgQzIxLjEwNCwxNi4xMDQyIDIyLDE2Ljk5OTIgMjIsMTguMTA0MiBMMjIsMjQuMTA0MiBDMjIsMjUuMjA5MiAyMS4xMDQsMjYuMTA0MiAyMCwyNi4xMDQyIEwyMCwyNi4xMDQyIFoiIGlkPSJGaWxsLTYiPjwvcGF0aD4KICAgICAgICAgICAgPHBhdGggZD0iTTYsMjkuMTA0IEwyLDI5LjEwNCBDMC44OTYsMjkuMTAzIDAuMDAxLDI4LjIwOCAwLDI3LjEwNCBMMCwzLjEwNCBDMC4wMDEsMiAwLjg5NiwxLjEwNSAyLDEuMTA0IEw2LDEuMTA0IEw2LDMuMTA0IEwyLDMuMTA0IEwyLDI3LjEwNCBMNiwyNy4xMDQgTDYsMjkuMTA0IFoiIGlkPSJGaWxsLTgiPjwvcGF0aD4KICAgICAgICAgICAgPHBhdGggZD0iTTI2LDI5LjEwNCBMMjIsMjkuMTA0IEwyMiwyNy4xMDQgTDI2LDI3LjEwNCBMMjYsMy4xMDQgTDIyLDMuMTA0IEwyMiwxLjEwNCBMMjYsMS4xMDQgQzI3LjEwNCwxLjEwNSAyNy45OTksMiAyOCwzLjEwNCBMMjgsMjcuMTA0IEMyNy45OTksMjguMjA4IDI3LjEwNCwyOS4xMDMgMjYsMjkuMTA0IiBpZD0iRmlsbC05Ij48L3BhdGg+CiAgICAgICAgPC9nPgogICAgPC9nPgo8L3N2Zz4=;" vertex="1" parent="MP2px9YScLDvGAfy4hZi-24">
          <mxGeometry x="20" y="6.150000000000091" width="20" height="20.71" as="geometry" />
        </mxCell>
        <mxCell id="MP2px9YScLDvGAfy4hZi-20" value="" style="rounded=0;whiteSpace=wrap;html=1;fontFamily=IBM Plex Sans;fontSource=fonts%2FIBMPlexSans-Regular.woff;fontSize=14;spacingBottom=-28;spacingTop=0;labelPosition=-100;verticalLabelPosition=top;align=center;verticalAlign=bottom;spacingLeft=9;spacing=0;expand=0;recursiveResize=0;spacingRight=0;container=1;collapsible=0;strokeColor=#1192E8;fillColor=#FFFFFF;" vertex="1" parent="MP2px9YScLDvGAfy4hZi-24">
          <mxGeometry x="40" y="60" width="220" height="370" as="geometry">
            <mxRectangle width="670" as="alternateBounds" />
          </mxGeometry>
        </mxCell>
        <mxCell id="MP2px9YScLDvGAfy4hZi-21" value="" style="rounded=0;whiteSpace=wrap;html=1;strokeColor=none;fillColor=#1192E8;" vertex="1" parent="MP2px9YScLDvGAfy4hZi-20">
          <mxGeometry width="7" height="37" as="geometry" />
        </mxCell>
        <mxCell id="MP2px9YScLDvGAfy4hZi-22" value="Code Engine project" style="text;html=1;strokeColor=none;fillColor=none;align=left;verticalAlign=middle;whiteSpace=wrap;rounded=0;fontFamily=IBM Plex Sans;fontSource=fonts%2FIBMPlexSans-Regular.woff;fontSize=14;" vertex="1" parent="MP2px9YScLDvGAfy4hZi-20">
          <mxGeometry x="51" y="8" width="163" height="20" as="geometry" />
        </mxCell>
        <mxCell id="MP2px9YScLDvGAfy4hZi-7" value="" style="shape=image;verticalLabelPosition=bottom;labelBackgroundColor=default;verticalAlign=top;aspect=fixed;imageAspect=0;image=data:image/jpeg,/9j/4AAQSkZJRgABAQAAAQABAAD/2wCEAAkGBwoNBg4IDRANCAgICBENCAgIDREOCQgPFREiFhQSHxMYHSgsJCYxJxoYLTUtJTUsOjo6FyszRD8sNzQtOjcBCgoKDg0OGhAQGi8mICYtMiswNy0tNS0tKy0tLystKy0tOC03LS0tKy0tLSs3LS0rLS0tLS0rLSstLjcrLSsrN//AABEIAOEA4QMBEQACEQEDEQH/xAAcAAEAAQUBAQAAAAAAAAAAAAAABwEEBQYIAwL/xABQEAABAwEBCAkPCQYHAQAAAAAAAQIDBAUGBxESFzE20hVUVXWRlLPR0xMUFiE1UVJTc3SSk6O0wwg0QWFxgbLB4SIygoSxwkJDYmNkoaIj/8QAGwEBAAIDAQEAAAAAAAAAAAAAAAMEAQIFBgf/xAAzEQEAAQIBCQYGAwEBAQAAAAAAAQIDBAUREzIzUVJxkRIUFTGhsTRBYYHB0SFT8EIiI//aAAwDAQACEQMRAD8AnEAAAAAAAAAAAAAAAAAAAAAAAAAAAAAAAAAAAAAAAAAAAAAAAAAAAAAAAAAAAAAAAAAAAAAAAAAAAAAAAAAAAAAAAAAAAAAAAAAAAAAAAAAAAAAAAAAAAAANEu0voWbZVctntjktOvjROrxQOayGmwphRrnr9OBcyIv14C1ZwlVyO15QjruRS1nLpHuc/jidGT+HzxejTTxuMuke5z+OJ0Y8Pni9DTxuMuke5z+OJ0Y8Pni9DTxuMuke5z+OJ0Y8Pni9DTxuMuke5z+OJ0Y8Pni9DTxuMuke5z+OJ0Y8Pni9DTxuMuke5z+OJ0Y8Pni9DTxuMuke5z+OJ0Y8Pni9DTxuMuke5z+OJ0Y8Pni9DTxuMuke5z+OJ0Y8Pni9DTxue1JfypFnRs1DNBCq/tywTslez68VWt/qYnAVZv4qZi/CUbLtGmrLPir6Z6VFJVRo+CVuFEcn2LmX6FRc2DAUaqZpnNPmlic66NWQAAAAAAAAAAAAAAAAA5Guhe590NdI5cZ77WqVc5c6qszj0FvUp5R7KNzWljzdoAAAAAAAAAAADoG8JK91xUrHLhbBbMrIk8BqxseqcLnL95ycdH/0+y5ZnPSkgpJQAAAAAAAAAAAAAAAAA5Et3u7Wb6VHLOPQ29SnlHso3NaV7cRZ9PWXW0Vn1DVlpKurxJ40c5ivbiKuDGaqKmZMxpfqmm3NUebNqImr+U75J7ldqv45VdIcrvl7f6QtaOncZJ7ldqv45VdIO+Xt/pBo6dxknuV2q/jlV0g75e3+kGjp3GSe5Xar+OVXSDvl7f6QaOncZJ7ldqv45VdIO+Xt/pBo6dxknuV2q/jlV0g75e3+kGjp3GSe5Xar+OVXSDvl7f6QaOncZJ7ldqv45VdIO+Xt/pBo6dzRr71xNjWXc9BWUMLqaomtVsMj3TzSo6NYXuVMD3KmdqcBawl+5crmKp+X6R3aKYpzxCJjoKqfbwGh1Rv7JyEZycftI5ftbsaqTCkmAAAAAAAAAAAAAAAAADkS3e7tZvpUcs49Db1KeUeyjc1pZe9pp9Zvn3w3EWJ2VTazrOpDhrgAAAAAAABGHygdEqXf1nu8pewG0nl+YRXtVAp1VNPt4DQ6o39k5CM5OP2kcv2t2NVJhSTAAD5kzGYYlZTKSQgqWEyr314SaEFUrCZy99eEliEFUysJnu768Kk1MQhqmVhNI/wncKk1MQgqqnex88r/AAnekpPTEbkNVVW9YTTSeG/0lJqaY3Iaq6t8rCWeXD+/J6bucnimnchmurfPV59Xl8OT03c5t2adxpK989VOry+HJ6bucz2adxpK989UsXu3OW5eNXKrl6vL23LhX99TzeU4iMRObdHs9Nk2ZnDxM/X3bMUF9yJbvd2s30qOWceht6lPKPZRua0sve00+s3z74biLE7KptZ1nUhw1wAAAAAAAAjD5QOiVLv6z3eUvYDaTy/MIr2qgU6qmn28BodUb+ychGcnH7SOX7W7GqkwpJgAB8vTtGYYlayxPXMmE3iYRVUys5aSZczVX70JIrp3oardW5Zy2fUrmYq/enOSxdo3oarNe5Zy2TWLmicv3t5yWL1G9FVh7u5ZS2JXrmhcv8TOckjEW96GcLe4VnLc9aS5oHL/ABM5yaMVa4kU4O/w+yymuYtZc1O9f449Ylpxlji90VWCxHB6x+1nJclbCr82f6cWsSxjsPxe6Ocn4ng9Y/b47ELZ2s/04tY27/h+L3Y8PxPB6x+zsQtnaz/Ti1jPf8Px+7Ph+J4PWP2ka4ihqKa59lNOxYJ2zSK6NyoqoiuwpmU4WPuU3L01UTnj+HfwFqq3YimuM0/z7s+U1xyJbvd2s30qOWceht6lPKPZRua0sve00+s3z74biLE7KptZ1nUhw1wAAAAAAAAjD5QOiVLv6z3eUvYDaTy/MIr2qgU6qmn28BodUb+ychGcnH7SOX7W7GqkwpJgAAAAAAAAAAAAAAAAA5Et3u7Wb6VHLOPQ29SnlHso3NaWXvaafWb598NxFidlU2s6zqQ4a4AAAAAAAARh8oHRKl39Z7vKXsBtJ5fmEV7VQKdVTT7eA0OqN/ZOQjOTj9pHL9rdjVSYUkwAAAAAAAAAAAAAAAAAciW73drN9KjlnHobepTyj2UbmtLL3tNPrN8++G4ixOyqbWdZ1IcNcAAAAAAAAIw+UDolS7+s93lL2A2k8vzCK9qoFOqpp9vAaHVG/snIRnJx+0jl+1uxqpMKSYAAAAAAAAAAAAAAAAAORLd7u1m+lRyzj0NvUp5R7KNzWll72mn1m+ffDcRYnZVNrOs6kOGuAAAAAAAAEYfKB0Spd/We7yl7AbSeX5hFe1UCnVU0+3gNDqjf2TkIzk4/aRy/a3Y1UmFJMAAAAAAAAANEulu3lirn0dI1ipTvVk1TMiuxnpnRqYfo76nUw2AiqmKrnzcLGZWqormi1Hl5zP4YXs6tbwofVfqWvD7P16qfi+I+nQ7O7X8KH1X6mfDrH16s+L4j6dFOzu1/Ch9V+pnw6x9ep4viPp0U7PLX8KH1X6jw2x9ep4tiPp0b7chaU9ZYjKuZWrM+V7VVjcVuBHYE7RycZaptXZpp8ndwN6q9Ziurz/lmiqtuRLd7u1m+lRyzj0NvUp5R7KNzWll72mn1m+ffDcRYnZVNrOs6kOGuAAAAAAAAEYfKB0Spd/We7yl7AbSeX5hFe1UCnVU0+3gNDqjf2TkIzk4/aRy/a3Y1UmFJMAAAAAAAAAIKqvnMi51WZ2H6/wBo9RRqw8Jc16ucvJTdq+cKGTOphQyznUwobM50sXu9F4/Ly/jU89lHbz9nqslfDU/f3bMUXRciW73drN9KjlnHobepTyj2UbmtLL3tNPrN8++G4ixOyqbWdZ1IcNcAAAAAAAAIw+UDolS7+s93lL2A2k8vzCK9qoFOqpp9vAaHVG/snIRnJx+0jl+1uxqpMKSYAAAAAAAAAQXU/OJPLO/Eenp8oeEua9XOWUuOY1101K1URzVkdha5MKL/APNSHFzms1f75reToicTRn+vtKWutIPFx+g3mOB26t713Yp3HWkHi4/QbzDt1bzsU7lOtKfxcfoN5h26t52Kdz1jY1rcVqIxvgsREQxMzPmzERHk+jDLkS3e7tZvpUcs49Db1KeUeyjc1pWkUr2SJKxzopWLhZJE5WyMXvoqG0xE+bWJzeS72ZtHbdZxqbWNdHRwx0baSrebM2jtus41NrDR0cMdDSVbzZm0dt1nGptYaOjhjoaSrebM2jtus41NrDR0cMdDSVbzZm0dt1nGptYaOjhjoaSrebM2jtus41NrDR0cMdDSVbzZm0dt1nGptYaOjhjoaSrebM2jtus41NrDR0cMdDSVb3jU19XMxGTTT1LGuxmsqZpJGNdgwYcDlXt9teEzFNMeUMTXM+a3MtU+3gNDqjf2TkIzk4/aRy/a3Y1UmFJMAAAAAAAAAILqfnD/ACzvxHpqfKHg7mvVzllrjNKKXyruTcQYvY1f75rmTfiqPv7Sl44D2AAAAAIHvg3r7Ubbs9oWdFshQ107plhie1tRSPeuM9uK5UwphVcGDv4Powr1cPi6OzFNc5phXuWpmc8NTyf3S7n1Ps9Yn7za4kehqMn90u59T7PWHebXEaGoyf3S7n1Ps9Yd5tcRoajJ/dLufU+z1jPebXEaGoyf3S7n1Ps9Yx3m1xGhqMn90u59T7PWHebXEaGoyf3S7n1Ps9Yd5tcRoajJ/dLufU+z1h3m1xGhqMn90u59T7PWHebXEaGoyf3S7n1Ps9Yd5tcRoanrTXuLppZ2xJQyxYy4FkqHxMiYnfVVd/TCJxVmI1mdDUn+4W5ptkXORWZjJNOjnS1k7EwNlmd+9g+pO0ifU1DkX7ukrmpZpp7MZmwETYAAAAAAAAAQZU/OH+Wd+I9LT5Q8Fc16ucsrcbpPS+VdybiHF7Gr/fNcyZ8VR9/aUvHAexAAAAAAAALeskxWIvfcb0RnaVzmha9cEnYRdteUj8aLD/qIq4zSlonPD2NW4AAAAAAAAAAeb5Ub9ZmIazVmW8lexv8Ahcv2YDaKJlFN+I+S3fbUbf8AA9fswG8WZn5opxlMfKVvJdLC3/LkX7MXnNow8z80c5Roj5StpLsKdv8AlTL9mJzm8YSqfnCKcq24/wCZ9Fu+7ykbnhn+7E5zeMDXPzhHOWrUf8z6ftHErsaVz8yPeqoi50wrhOtH8RmeaqntVTLL3G6T0vlXcm4hxexq/wB813JnxVH39pS6cF7EAAAAAAAAx1tPxYWL35PyJ7EZ5lXxE5ohh+uCz2VXts3Y78akw/7ilW9GapcsTnpXxCmAAAAAAAAAAC3qDalFWxlQS0qdbF1BNSqVsZUE1KpWxdQTUqtbF1JPSqVrQkRMzcbpPS+VdyakGK2NX++a/kz4qj7+0pcOE9kAAAAAAAAYS6l+LSxr35v7VLWFjPVKnjZzUxza31wXuy53bbTc0/Gs3D/vO/I5+KjNW6eEnPb+7LFdaAAAAAAAAAAD4fGi58P3Gc7WaYl4voY1z43CZ7co5s0y8H2RTrnx/SNtLU0nCW5eL7nqRc/VPT/Q209SOcBane8H3KUC5+q/c/8AQ2jE1w0nJlid/V4vuKs12fq3rP0NoxlyNyOckYad/VGMzUbK5qZmyKiYc+BFOxTOeHlK4zVTH1ZW47Sel8o7k3EOK2NX++a7kz4qj7+0pcOG9kAAAAAAAAa3dw/FoYV79T/YpdwMZ6p5OdlGc1FPP8NN64On2XI7bebjX41j4f8AkP8AyOVjYzXPs7eAnPa+7OlRdAAAAAAAAAAAAAAAAACEKn5w/wAq78R6Gnyh4C5r1c5ZS47Sal8o7k1IcVsalzJnxVH39pS2cR7MAAAAAAAA1K+M/Fs2Be/WYP8Awp0cnRnrq5flycrzmt08/wAS0Drg6/ZcLtpIuAfjWBh/5T/yOJlCM137PRZLnPY+8tkKTogAAAAAAAAAAAAAAAABCFT84f5V34jv0+UPn9zXq5yytx2k1L5R3JqRYrZVLuTPiqPv7Slo4r2YAAAAAAABpl9DuVT+e/DU6WTNpVy/Lj5a2VPP8SjfCp23nM6Ur2+jf85J+Rwco7b7Q9Rkn4eOctpKDpgAAAAAAAAAAAAAAAABCNT84f5V34jvU+UPn9zXq5yyNy00cd0FPNI5sUTJHY8kio1jf2FTOpHiImbcxC1k6umjE0VVTmj+faUmbO2btqm9eznOVobnDPR63vmH/sp6wbO2Ztqm9eznGgucM9DvmH/sp6wbPWZtql9eznGgucM9DvmH/sp6wbPWZtql9eznGgu8M9DvmH/sp6wbPWZtql9eznGgu8M9DvmH/sp6wbPWZtql9eznM93u8M9DvmH/ALKesKbP2Ztql9eznHd7vDPQ75h/7KesGz9l7apfXs5x3e7wz0O+Yfjp6w1S+JaVJPZsDIJoal7KvGc2CRr3NTEVMOBFL+T7VdFczVEx/DlZWv2rlqmKKon+flP0loJ13BSle30c/m5PyOFlHbfaHqckfDRzltJQdMAAAAAAAAAAAAAAAAAITqmqlVI1e0qTORUXOi4x3aZ/iHz+7Ga5Vzn3eJu0UMgZZUMsqGRQyyoZFDLKhlkNhQyylK9y1UubRV7SOqpFb9aYcH5HCyhtvtD1WSfho5y2goumAAAAAAAAAAAAAAAAAGpXQ3GtqKp1XTvbTyzOxpopUXqT3LndhTN/2XLOK7EdmqHExuR4vVzctzmmfPdzYfsBr/G03DJqk/faN0qPgV/ij1U7Aa/xtNwyao79Ruk8Cv8AFHqdgFf42m4ZNUz36jdLPgd/ij1U7AK/xtNwyapnv9G6TwO/xR6nYBX+NpuGTVHf6N0ngd7ij1Uyf1/jabhk1TPiFvdLPgd7ij1Mn9oeNpuGTVM+IW90ngl7ij1UyfWh42m4ZNUz4hb3Sz4Je4o9TJ9aHjabhk1R4jb3SeCXuKPVTJ7aHjabhk1TPiNvdJ4Je4o9XrS3vKlZk6tPEyLD+11ujnSKne7aIYqylTm/80z90lGRK8//ALqjN9G/UNJFT0bKWJMSGBmKxv0/b9vOcquua6pqq85d+1bpt0RRTH8Q9zRuAAAAAAAAAAAAAAAAAAAAAAAAAAAAAAAAAAAAAAAAAAAAAAAAAAAAAAAAAAAAAAAAAAAAAAAAAAAAAAAAAAAAAAAAAAAAAAAAAAAAAAAAAAAAAAAAAAAAAAAAAAAAAAAAAAAAAAAAAAAAAAAAD//Z;" vertex="1" parent="MP2px9YScLDvGAfy4hZi-20">
          <mxGeometry x="14" y="4" width="30" height="30" as="geometry" />
        </mxCell>
        <mxCell id="MP2px9YScLDvGAfy4hZi-34" value="Application" style="shape=image;aspect=fixed;image=data:image/svg+xml,PHN2ZyBpZD0iTGF5ZXJfMSIgZGF0YS1uYW1lPSJMYXllciAxIiB4bWxucz0iaHR0cDovL3d3dy53My5vcmcvMjAwMC9zdmciIHZpZXdCb3g9IjAgMCA0OSA0OSI+PGRlZnM+PHN0eWxlPi5jbHMtMXtmaWxsOiNhNTZlZmY7fS5jbHMtMntmaWxsOm5vbmU7fS5jbHMtM3tmaWxsOiNmZmY7ZmlsbC1ydWxlOmV2ZW5vZGQ7fTwvc3R5bGU+PC9kZWZzPjxyZWN0IGNsYXNzPSJjbHMtMSIgeD0iMC41IiB5PSIwLjUiIHdpZHRoPSI0OCIgaGVpZ2h0PSI0OCIgcng9IjgiLz48cmVjdCBjbGFzcz0iY2xzLTIiIHg9IjE0LjczIiB5PSIxNC41IiB3aWR0aD0iMjAiIGhlaWdodD0iMjAiLz48cmVjdCBjbGFzcz0iY2xzLTIiIHg9IjE0LjUiIHk9IjE0LjUiIHdpZHRoPSIyMCIgaGVpZ2h0PSIyMCIvPjxwYXRoIGlkPSJGaWxsLTEiIGNsYXNzPSJjbHMtMyIgZD0iTTE2LjI1LDI0LjIySDI0VjE2LjQ5SDE2LjI1Wk0yNCwyNS43N0gxNi4yNWExLjU0LDEuNTQsMCwwLDEtMS41NC0xLjU1VjE2LjQ5YTEuNTUsMS41NSwwLDAsMSwxLjU0LTEuNTVIMjRhMS41NSwxLjU1LDAsMCwxLDEuNTUsMS41NXY3LjczQTEuNTQsMS41NCwwLDAsMSwyNCwyNS43N1oiLz48cGF0aCBpZD0iRmlsbC0zIiBjbGFzcz0iY2xzLTMiIGQ9Ik0zMS43MiwxOS41OGgtMy4xYTEuNTUsMS41NSwwLDAsMC0xLjU0LDEuNTV2My4wOWExLjU0LDEuNTQsMCwwLDAsMS41NCwxLjU1aDMuMWExLjU0LDEuNTQsMCwwLDAsMS41NC0xLjU1VjIxLjEzYTEuNTUsMS41NSwwLDAsMC0xLjU0LTEuNTVabS0zLjEsNC42NGgzLjFWMjEuMTNoLTMuMVoiLz48cGF0aCBpZD0iRmlsbC00IiBjbGFzcz0iY2xzLTMiIGQ9Ik0zMS43MiwyNy4zMWgtMy4xYTEuNTUsMS41NSwwLDAsMC0xLjU0LDEuNTVWMzJhMS41NCwxLjU0LDAsMCwwLDEuNTQsMS41NWgzLjFBMS41NCwxLjU0LDAsMCwwLDMzLjI2LDMyVjI4Ljg2YTEuNTUsMS41NSwwLDAsMC0xLjU0LTEuNTVaTTI4LjYyLDMyaDMuMVYyOC44NmgtMy4xWiIvPjxwYXRoIGlkPSJGaWxsLTUiIGNsYXNzPSJjbHMtMyIgZD0iTTI0LDI3LjMxSDIwLjg5YTEuNTUsMS41NSwwLDAsMC0xLjU0LDEuNTVWMzJhMS41NCwxLjU0LDAsMCwwLDEuNTQsMS41NUgyNEExLjU0LDEuNTQsMCwwLDAsMjUuNTMsMzJWMjguODZBMS41NSwxLjU1LDAsMCwwLDI0LDI3LjMxWk0yMC44OSwzMkgyNFYyOC44NkgyMC44OVoiLz48L3N2Zz4=;fontFamily=IBM Plex Sans;fontSource=fonts%2FIBMPlexSans-Regular.woff;fontSize=14;labelPosition=center;verticalLabelPosition=bottom;align=center;verticalAlign=top;spacingTop=-7;" vertex="1" parent="MP2px9YScLDvGAfy4hZi-20">
          <mxGeometry x="80" y="70" width="48" height="48" as="geometry" />
        </mxCell>
        <mxCell id="MP2px9YScLDvGAfy4hZi-35" value="Function" style="shape=image;aspect=fixed;image=data:image/svg+xml,PHN2ZyBpZD0iTGF5ZXJfMSIgZGF0YS1uYW1lPSJMYXllciAxIiB4bWxucz0iaHR0cDovL3d3dy53My5vcmcvMjAwMC9zdmciIHhtbG5zOnhsaW5rPSJodHRwOi8vd3d3LnczLm9yZy8xOTk5L3hsaW5rIiB2aWV3Qm94PSIwIDAgNDkgNDkiPjxkZWZzPjxzdHlsZT4uY2xzLTF7ZmlsbDojZmZmO2ZpbGwtcnVsZTpldmVub2RkO30uY2xzLTJ7ZmlsbDojYTU2ZWZmO30uY2xzLTN7ZmlsbDpub25lO30uY2xzLTR7bWFzazp1cmwoI21hc2spO308L3N0eWxlPjxtYXNrIGlkPSJtYXNrIiB4PSIxNy4zMyIgeT0iMTUuMTMiIHdpZHRoPSIxMy41NyIgaGVpZ2h0PSIxOC45OSIgbWFza1VuaXRzPSJ1c2VyU3BhY2VPblVzZSI+PGcgaWQ9Im1hc2stMiI+PHBvbHlnb24gaWQ9InBhdGgtMSIgY2xhc3M9ImNscy0xIiBwb2ludHM9IjE3LjMzIDE1LjEzIDMwLjkgMTUuMTMgMzAuOSAzNC4xMyAxNy4zMyAzNC4xMyAxNy4zMyAxNS4xMyIvPjwvZz48L21hc2s+PC9kZWZzPjxyZWN0IGNsYXNzPSJjbHMtMiIgeD0iMC41IiB5PSIwLjUiIHdpZHRoPSI0OCIgaGVpZ2h0PSI0OCIgcng9IjgiLz48cmVjdCBjbGFzcz0iY2xzLTMiIHg9IjE0LjUiIHk9IjE0LjUiIHdpZHRoPSIyMCIgaGVpZ2h0PSIyMCIvPjxwYXRoIGlkPSJGaWxsLTEiIGNsYXNzPSJjbHMtMSIgZD0iTTI5LjkzLDI5LjY1bDEuNzYsMS43Ni0xLjc1LDEuNzUsMSwxLDIuNzEtMi43MkwzMC45LDI4LjdabS01LjgyLDEuNzYsMi43MiwyLjcyLDEtMUwyNiwzMS40MWwxLjc1LTEuNzUtMS0xWiIvPjxnIGNsYXNzPSJjbHMtNCI+PHBhdGggaWQ9IkZpbGwtMiIgY2xhc3M9ImNscy0xIiBkPSJNMjUuNDcsMTYuNzZsMy44LDMuOGgtMy44Wm0tMi43MSwxNkgxOC42OVYxNi40OWg1LjQydjQuMDdhMS4zNSwxLjM1LDAsMCwwLDEuMzYsMS4zNWg0LjA3VjI2SDMwLjlWMjAuNTZhLjYzLjYzLDAsMCwwLS4yMS0uNDhsLTQuNzUtNC43NWEuNjMuNjMsMCwwLDAtLjQ3LS4ySDE4LjY5YTEuMzYsMS4zNiwwLDAsMC0xLjM2LDEuMzZWMzIuNzdhMS4zNywxLjM3LDAsMCwwLDEuMzYsMS4zNmg0LjA3WiIvPjwvZz48L3N2Zz4=;fontSize=14;fontFamily=IBM Plex Sans;fontSource=fonts%2FIBMPlexSans-Regular.woff;spacingTop=-7;labelPosition=center;verticalLabelPosition=bottom;align=center;verticalAlign=top;" vertex="1" parent="MP2px9YScLDvGAfy4hZi-20">
          <mxGeometry x="80" y="165" width="48" height="48" as="geometry" />
        </mxCell>
        <mxCell id="MP2px9YScLDvGAfy4hZi-37" value="Job" style="shape=image;aspect=fixed;image=data:image/svg+xml,PHN2ZyBpZD0iTGF5ZXJfMSIgZGF0YS1uYW1lPSJMYXllciAxIiB4bWxucz0iaHR0cDovL3d3dy53My5vcmcvMjAwMC9zdmciIHZpZXdCb3g9IjAgMCA0OSA0OSI+PGRlZnM+PHN0eWxlPi5jbHMtMXtmaWxsOiNhNTZlZmY7fS5jbHMtMntmaWxsOm5vbmU7fS5jbHMtM3tmaWxsOiNmZmY7ZmlsbC1ydWxlOmV2ZW5vZGQ7fTwvc3R5bGU+PC9kZWZzPjxyZWN0IGNsYXNzPSJjbHMtMSIgeD0iMC41IiB5PSIwLjUiIHdpZHRoPSI0OCIgaGVpZ2h0PSI0OCIgcng9IjgiLz48cmVjdCBjbGFzcz0iY2xzLTIiIHg9IjE0LjUiIHk9IjE0LjUiIHdpZHRoPSIyMCIgaGVpZ2h0PSIyMCIvPjxwYXRoIGlkPSJGaWxsLTEiIGNsYXNzPSJjbHMtMyIgZD0iTTE2Ljc5LDMyLjIxSDMyLjIxVjIxLjQySDE2Ljc5Wm0wLTEyLjM0SDMyLjIxVjE2Ljc5SDE2Ljc5Wm0xNS40Mi00LjYySDE2Ljc5YTEuNTQsMS41NCwwLDAsMC0xLjU0LDEuNTRWMzIuMjFhMS41NCwxLjU0LDAsMCwwLDEuNTQsMS41NEgzMi4yMWExLjU0LDEuNTQsMCwwLDAsMS41NC0xLjU0VjE2Ljc5YTEuNTQsMS41NCwwLDAsMC0xLjU0LTEuNTRaIi8+PHBvbHlnb24gaWQ9IkZpbGwtMyIgY2xhc3M9ImNscy0zIiBwb2ludHM9IjIwLjQ2IDI0LjYzIDIyLjYzIDI2LjgxIDIwLjQ2IDI5IDIxLjU1IDMwLjA4IDI0LjgyIDI2LjgxIDIxLjU1IDIzLjU0IDIwLjQ2IDI0LjYzIi8+PC9zdmc+;fontFamily=IBM Plex Sans;fontSource=fonts%2FIBMPlexSans-Regular.woff;fontSize=14;labelPosition=center;verticalLabelPosition=bottom;align=center;verticalAlign=top;spacingTop=-7;" vertex="1" parent="MP2px9YScLDvGAfy4hZi-20">
          <mxGeometry x="80" y="259" width="48" height="48" as="geometry" />
        </mxCell>
        <mxCell id="MP2px9YScLDvGAfy4hZi-16" value="" style="rounded=0;whiteSpace=wrap;html=1;fontFamily=IBM Plex Sans;fontSource=fonts%2FIBMPlexSans-Regular.woff;fontSize=14;spacingBottom=-28;spacingTop=0;labelPosition=-100;verticalLabelPosition=top;align=center;verticalAlign=bottom;spacingLeft=9;spacing=0;expand=0;recursiveResize=0;spacingRight=0;container=1;collapsible=0;strokeColor=#1192E8;fillColor=default;" vertex="1" parent="MP2px9YScLDvGAfy4hZi-24">
          <mxGeometry x="680" y="60" width="590" height="460" as="geometry">
            <mxRectangle width="670" as="alternateBounds" />
          </mxGeometry>
        </mxCell>
        <mxCell id="MP2px9YScLDvGAfy4hZi-17" value="" style="rounded=0;whiteSpace=wrap;html=1;strokeColor=none;fillColor=#1192E8;" vertex="1" parent="MP2px9YScLDvGAfy4hZi-16">
          <mxGeometry width="7" height="37" as="geometry" />
        </mxCell>
        <mxCell id="MP2px9YScLDvGAfy4hZi-18" value="IBM VPC (customer managed)" style="text;html=1;strokeColor=none;fillColor=none;align=left;verticalAlign=middle;whiteSpace=wrap;rounded=0;fontFamily=IBM Plex Sans;fontSource=fonts%2FIBMPlexSans-Regular.woff;fontSize=14;" vertex="1" parent="MP2px9YScLDvGAfy4hZi-16">
          <mxGeometry x="51" y="8" width="209" height="20" as="geometry" />
        </mxCell>
        <mxCell id="MP2px9YScLDvGAfy4hZi-19" value="" style="shape=image;aspect=fixed;image=data:image/svg+xml,PD94bWwgdmVyc2lvbj0iMS4wIiBlbmNvZGluZz0iVVRGLTgiPz4KPHN2ZyB3aWR0aD0iMjlweCIgaGVpZ2h0PSIyOHB4IiB2aWV3Qm94PSIwIDAgMjkgMjgiIHZlcnNpb249IjEuMSIgeG1sbnM9Imh0dHA6Ly93d3cudzMub3JnLzIwMDAvc3ZnIiB4bWxuczp4bGluaz0iaHR0cDovL3d3dy53My5vcmcvMTk5OS94bGluayI+CiAgICA8IS0tIEdlbmVyYXRvcjogU2tldGNoIDUzICg3MjUyMCkgLSBodHRwczovL3NrZXRjaGFwcC5jb20gLS0+CiAgICA8dGl0bGU+SUJNIFZQQyBCbGFjazwvdGl0bGU+CiAgICA8ZGVzYz5DcmVhdGVkIHdpdGggU2tldGNoLjwvZGVzYz4KICAgIDxnIGlkPSJQYWdlLTEiIHN0cm9rZT0ibm9uZSIgc3Ryb2tlLXdpZHRoPSIxIiBmaWxsPSJub25lIiBmaWxsLXJ1bGU9ImV2ZW5vZGQiPgogICAgICAgIDxnIGlkPSJJQk0tVlBDLUJsYWNrIiB0cmFuc2Zvcm09InRyYW5zbGF0ZSgwLjc1MDAwMCwgLTEuMDAwMDAwKSIgZmlsbD0iIzAwMDAwMCI+CiAgICAgICAgICAgIDxwYXRoIGQ9Ik0wLjAwMDksMS4wMDAyIEwwLjAwMDksOS4wMDAyIEw2LjU4NjksOS4wMDAyIEwyMC4wMDA5LDIyLjQxNDIgTDIwLjAwMDksMjkuMDAwMiBMMjguMDAwOSwyOS4wMDAyIEwyOC4wMDA5LDIxLjAwMDIgTDIxLjQxNTksMjEuMDAwMiBMOC4wMDA5LDcuNTg1MiBMOC4wMDA5LDEuMDAwMiBMMC4wMDA5LDEuMDAwMiBaIE0yLjAwMDksNy4wMDAyIEw2LjAwMDksNy4wMDAyIEw2LjAwMDksMy4wMDAyIEwyLjAwMDksMy4wMDAyIEwyLjAwMDksNy4wMDAyIFogTTIyLjAwMDksMjcuMDAxMiBMMjYuMDAxOSwyNy4wMDEyIEwyNi4wMDE5LDIzLjAwMDIgTDIyLjAwMDksMjMuMDAwMiBMMjIuMDAwOSwyNy4wMDEyIFoiIGlkPSJGaWxsLTEiPjwvcGF0aD4KICAgICAgICAgICAgPGcgaWQ9Ikdyb3VwLTgiIHRyYW5zZm9ybT0idHJhbnNsYXRlKDAuMDAwMDAwLCAwLjAwMTkwMCkiPgogICAgICAgICAgICAgICAgPGcgaWQ9Ikdyb3VwLTQiIHRyYW5zZm9ybT0idHJhbnNsYXRlKDExLjAwMDAwMCwgMC4wMDAwMDApIj4KICAgICAgICAgICAgICAgICAgICA8cGF0aCBkPSJNMTIuNjQ2Nyw2LjgxNzkgQzExLjU0MjcsNi44MTc5IDEwLjY0NjcsNS45MjI5IDEwLjY0NjcsNC44MTc5IEMxMC42NDY3LDMuNzEzOSAxMS41NDI3LDIuODE3OSAxMi42NDY3LDIuODE3OSBDMTMuNzUwNywyLjgxNzkgMTQuNjQ2NywzLjcxMzkgMTQuNjQ2Nyw0LjgxNzkgQzE0LjY0NTcsNS45MjE5IDEzLjc1MDcsNi44MTY5IDEyLjY0NjcsNi44MTc5IE0xNi43MzM3LDMuNTE4OSBDMTYuMzU2NywyLjQ5ODkgMTUuNTMxNywxLjY2NzkgMTQuNTE1NywxLjI4MDkgQzEyLjEyNzcsMC4zNzA5IDkuNzE3NywxLjc1NTkgOS4xNDI3LDMuOTk3OSBMMC4wMDA3LDMuOTk3OSBMMC4wMDA3LDUuOTk3OSBMOS4xNDI3LDUuOTk3OSBDOS41MDc3LDcuMzk3OSAxMC42MDE3LDguNDkwOSAxMi4wMDA3LDguODU1OSBMMTIuMDAwNywxNy45OTc5IEwxNC4wMDA3LDE3Ljk5NzkgTDE0LjAwMDcsOC44NTU5IEMxNi4yMjk3LDguMjgxOSAxNy42MTE3LDUuODk2OSAxNi43MzM3LDMuNTE4OSIgaWQ9IkZpbGwtMiI+PC9wYXRoPgogICAgICAgICAgICAgICAgPC9nPgogICAgICAgICAgICAgICAgPGcgaWQ9Ikdyb3VwLTciIHRyYW5zZm9ybT0idHJhbnNsYXRlKDAuMDAwMDAwLCAxMS4wMDAwMDApIj4KICAgICAgICAgICAgICAgICAgICA8cGF0aCBkPSJNMy42NDY3LDE1LjgxNzkgQzIuNTQyNywxNS44MTc5IDEuNjQ2NywxNC45MjI5IDEuNjQ2NywxMy44MTc5IEMxLjY0NjcsMTIuNzEzOSAyLjU0MjcsMTEuODE3OSAzLjY0NjcsMTEuODE3OSBDNC43NTA3LDExLjgxNzkgNS42NDY3LDEyLjcxMzkgNS42NDY3LDEzLjgxNzkgQzUuNjQ1NywxNC45MjE5IDQuNzUwNywxNS44MTY5IDMuNjQ2NywxNS44MTc5IEwzLjY0NjcsMTUuODE3OSBaIE0xNy4wMDA3LDEyLjk5NzkgTDcuODU4NywxMi45OTc5IEM3LjQ5MzcsMTEuNTk3OSA2LjQwMDcsMTAuNTA0OSA1LjAwMDcsMTAuMTM5OSBMNS4wMDA3LDAuOTk3OSBMMy4wMDA3LDAuOTk3OSBMMy4wMDA3LDEwLjEzOTkgQzAuNDg3NywxMC43ODQ5IC0wLjg1MTMsMTMuNjgzOSAwLjU5NDcsMTYuMTE5OSBDMS4xNTA3LDE3LjA1NTkgMi4xMTE3LDE3LjcyODkgMy4xODI3LDE3LjkyNjkgQzUuNDAyNywxOC4zMzc5IDcuMzUzNywxNi45Njk5IDcuODU4NywxNC45OTc5IEwxNy4wMDA3LDE0Ljk5NzkgTDE3LjAwMDcsMTIuOTk3OSBaIiBpZD0iRmlsbC01Ij48L3BhdGg+CiAgICAgICAgICAgICAgICA8L2c+CiAgICAgICAgICAgIDwvZz4KICAgICAgICA8L2c+CiAgICA8L2c+Cjwvc3ZnPg==;" vertex="1" parent="MP2px9YScLDvGAfy4hZi-16">
          <mxGeometry x="20" y="6.849999999999909" width="20" height="19.31" as="geometry" />
        </mxCell>
        <mxCell id="MP2px9YScLDvGAfy4hZi-41" value="" style="rounded=0;whiteSpace=wrap;html=1;fontFamily=IBM Plex Sans;fontSource=fonts%2FIBMPlexSans-Regular.woff;fontSize=14;fillColor=#E6E6E6;spacingBottom=-28;spacingTop=0;labelPosition=-100;verticalLabelPosition=top;align=center;verticalAlign=bottom;spacingLeft=9;spacing=0;expand=0;recursiveResize=0;spacingRight=0;container=1;collapsible=0;strokeColor=#FA4D56;strokeWidth=1;" vertex="1" parent="MP2px9YScLDvGAfy4hZi-16">
          <mxGeometry x="20" y="50" width="550" height="390" as="geometry">
            <mxRectangle width="670" as="alternateBounds" />
          </mxGeometry>
        </mxCell>
        <mxCell id="MP2px9YScLDvGAfy4hZi-42" value="" style="rounded=0;whiteSpace=wrap;html=1;strokeColor=none;fillColor=#FA4D56;fontFamily=IBM Plex Sans;fontSource=fonts%2FIBMPlexSans-Regular.woff;fontSize=14;" vertex="1" parent="MP2px9YScLDvGAfy4hZi-41">
          <mxGeometry width="7" height="37" as="geometry" />
        </mxCell>
        <mxCell id="MP2px9YScLDvGAfy4hZi-43" value="Network ACL" style="text;html=1;strokeColor=none;fillColor=none;align=left;verticalAlign=middle;whiteSpace=wrap;rounded=0;fontFamily=IBM Plex Sans;fontSource=fonts%2FIBMPlexSans-Regular.woff;fontSize=14;" vertex="1" parent="MP2px9YScLDvGAfy4hZi-41">
          <mxGeometry x="50.33" y="8" width="170" height="20" as="geometry" />
        </mxCell>
        <mxCell id="MP2px9YScLDvGAfy4hZi-44" value="" style="shape=image;aspect=fixed;image=data:image/svg+xml,PHN2ZyBpZD0iaWNvbiIgeG1sbnM9Imh0dHA6Ly93d3cudzMub3JnLzIwMDAvc3ZnIiB2aWV3Qm94PSIwIDAgMzIgMzIiPjxkZWZzPjxzdHlsZT4uY2xzLTF7ZmlsbDpub25lO308L3N0eWxlPjwvZGVmcz48dGl0bGU+bG9ja2VkPC90aXRsZT48cGF0aCBkPSJNMjQsMTRIMjJWOEE2LDYsMCwwLDAsMTAsOHY2SDhhMiwyLDAsMCwwLTIsMlYyOGEyLDIsMCwwLDAsMiwySDI0YTIsMiwwLDAsMCwyLTJWMTZBMiwyLDAsMCwwLDI0LDE0Wk0xMiw4YTQsNCwwLDAsMSw4LDB2NkgxMlpNMjQsMjhIOFYxNkgyNFoiLz48cmVjdCBpZD0iX1RyYW5zcGFyZW50X1JlY3RhbmdsZV8iIGRhdGEtbmFtZT0iJmx0O1RyYW5zcGFyZW50IFJlY3RhbmdsZSZndDsiIGNsYXNzPSJjbHMtMSIgd2lkdGg9IjMyIiBoZWlnaHQ9IjMyIi8+PC9zdmc+;" vertex="1" parent="MP2px9YScLDvGAfy4hZi-41">
          <mxGeometry x="20" y="6.5" width="23" height="23" as="geometry" />
        </mxCell>
        <mxCell id="MP2px9YScLDvGAfy4hZi-67" value="" style="rounded=0;whiteSpace=wrap;html=1;fontFamily=IBM Plex Sans;fontSource=fonts%2FIBMPlexSans-Regular.woff;fontSize=14;spacingBottom=-28;spacingTop=0;labelPosition=-100;verticalLabelPosition=top;align=center;verticalAlign=bottom;spacingLeft=9;spacing=0;expand=0;recursiveResize=0;spacingRight=0;container=1;collapsible=0;strokeColor=#1192E8;fillColor=default;" vertex="1" parent="MP2px9YScLDvGAfy4hZi-41">
          <mxGeometry x="30" y="40" width="500" height="330" as="geometry">
            <mxRectangle width="670" as="alternateBounds" />
          </mxGeometry>
        </mxCell>
        <mxCell id="MP2px9YScLDvGAfy4hZi-68" value="" style="rounded=0;whiteSpace=wrap;html=1;strokeColor=none;fillColor=#1192E8;" vertex="1" parent="MP2px9YScLDvGAfy4hZi-67">
          <mxGeometry width="7" height="37" as="geometry" />
        </mxCell>
        <mxCell id="MP2px9YScLDvGAfy4hZi-69" value="Subnet" style="text;html=1;strokeColor=none;fillColor=none;align=left;verticalAlign=middle;whiteSpace=wrap;rounded=0;fontFamily=IBM Plex Sans;fontSource=fonts%2FIBMPlexSans-Regular.woff;fontSize=14;" vertex="1" parent="MP2px9YScLDvGAfy4hZi-67">
          <mxGeometry x="51" y="8" width="163" height="20" as="geometry" />
        </mxCell>
        <mxCell id="MP2px9YScLDvGAfy4hZi-70" value="" style="shape=image;aspect=fixed;image=data:image/svg+xml,PD94bWwgdmVyc2lvbj0iMS4wIiBlbmNvZGluZz0iVVRGLTgiPz4KPHN2ZyB3aWR0aD0iMjFweCIgaGVpZ2h0PSIyOXB4IiB2aWV3Qm94PSIwIDAgMjEgMjkiIHZlcnNpb249IjEuMSIgeG1sbnM9Imh0dHA6Ly93d3cudzMub3JnLzIwMDAvc3ZnIiB4bWxuczp4bGluaz0iaHR0cDovL3d3dy53My5vcmcvMTk5OS94bGluayI+CiAgICA8IS0tIEdlbmVyYXRvcjogU2tldGNoIDUzICg3MjUyMCkgLSBodHRwczovL3NrZXRjaGFwcC5jb20gLS0+CiAgICA8dGl0bGU+U3VibmV0IEJsYWNrPC90aXRsZT4KICAgIDxkZXNjPkNyZWF0ZWQgd2l0aCBTa2V0Y2guPC9kZXNjPgogICAgPGcgaWQ9IlBhZ2UtMSIgc3Ryb2tlPSJub25lIiBzdHJva2Utd2lkdGg9IjEiIGZpbGw9Im5vbmUiIGZpbGwtcnVsZT0iZXZlbm9kZCI+CiAgICAgICAgPGcgaWQ9IlN1Ym5ldC1CbGFjayIgdHJhbnNmb3JtPSJ0cmFuc2xhdGUoLTUuMzg4ODg5LCAtMS43NjI5ODYpIj4KICAgICAgICAgICAgPHBhdGggZD0iTTI0LDE0IEwyMiwxNCBMMjIsOCBDMjIsNC42ODYyOTE1IDE5LjMxMzcwODUsMiAxNiwyIEMxMi42ODYyOTE1LDIgMTAsNC42ODYyOTE1IDEwLDggTDEwLDE0IEw4LDE0IEM2Ljg5NTQzMDUsMTQgNiwxNC44OTU0MzA1IDYsMTYgTDYsMjggQzYsMjkuMTA0NTY5NSA2Ljg5NTQzMDUsMzAgOCwzMCBMMjQsMzAgQzI1LjEwNDU2OTUsMzAgMjYsMjkuMTA0NTY5NSAyNiwyOCBMMjYsMTYgQzI2LDE0Ljg5NTQzMDUgMjUuMTA0NTY5NSwxNCAyNCwxNCBaIE0xMiw4IEMxMiw1Ljc5MDg2MSAxMy43OTA4NjEsNCAxNiw0IEMxOC4yMDkxMzksNCAyMCw1Ljc5MDg2MSAyMCw4IEwyMCwxNCBMMTIsMTQgTDEyLDggWiBNMjQsMjggTDgsMjggTDgsMTYgTDI0LDE2IEwyNCwyOCBaIiBpZD0iU2hhcGUiIGZpbGw9IiMwMDAwMDAiIGZpbGwtcnVsZT0ibm9uemVybyI+PC9wYXRoPgogICAgICAgICAgICA8cmVjdCBpZD0iX1RyYW5zcGFyZW50X1JlY3RhbmdsZV8iIHg9IjAiIHk9IjAiIHdpZHRoPSIzMiIgaGVpZ2h0PSIzMiI+PC9yZWN0PgogICAgICAgIDwvZz4KICAgIDwvZz4KPC9zdmc+;" vertex="1" parent="MP2px9YScLDvGAfy4hZi-67">
          <mxGeometry x="20" y="6" width="14" height="19.34" as="geometry" />
        </mxCell>
        <mxCell id="MP2px9YScLDvGAfy4hZi-71" value="Security Group" style="fontStyle=0;verticalAlign=top;align=left;spacingTop=-2;fillColor=#E6E6E6;rounded=0;whiteSpace=wrap;html=1;strokeColor=#FF0000;strokeWidth=2;dashed=1;container=1;collapsible=0;expand=0;recursiveResize=0;spacingLeft=20;" vertex="1" parent="MP2px9YScLDvGAfy4hZi-67">
          <mxGeometry x="34" y="51" width="440" height="259" as="geometry" />
        </mxCell>
        <mxCell id="MP2px9YScLDvGAfy4hZi-47" value="" style="rounded=0;whiteSpace=wrap;html=1;fontFamily=IBM Plex Sans;fontSource=fonts%2FIBMPlexSans-Regular.woff;fontSize=14;spacingBottom=-28;spacingTop=0;labelPosition=-100;verticalLabelPosition=top;align=center;verticalAlign=bottom;spacingLeft=9;spacing=0;expand=0;recursiveResize=0;spacingRight=0;container=1;collapsible=0;fillColor=default;strokeColor=#198038;" vertex="1" parent="MP2px9YScLDvGAfy4hZi-71">
          <mxGeometry x="250" y="30" width="170" height="210" as="geometry">
            <mxRectangle width="670" as="alternateBounds" />
          </mxGeometry>
        </mxCell>
        <mxCell id="MP2px9YScLDvGAfy4hZi-48" value="" style="rounded=0;whiteSpace=wrap;html=1;strokeColor=none;fillColor=#198038;" vertex="1" parent="MP2px9YScLDvGAfy4hZi-47">
          <mxGeometry width="7" height="37" as="geometry" />
        </mxCell>
        <mxCell id="MP2px9YScLDvGAfy4hZi-49" value="Virtual Server" style="text;html=1;strokeColor=none;fillColor=none;align=left;verticalAlign=middle;whiteSpace=wrap;rounded=0;fontFamily=IBM Plex Sans;fontSource=fonts%2FIBMPlexSans-Regular.woff;fontSize=14;" vertex="1" parent="MP2px9YScLDvGAfy4hZi-47">
          <mxGeometry x="51" y="8" width="163" height="20" as="geometry" />
        </mxCell>
        <mxCell id="MP2px9YScLDvGAfy4hZi-50" value="" style="shape=image;aspect=fixed;image=data:image/svg+xml,PHN2ZyBpZD0iaWNvbiIgeG1sbnM9Imh0dHA6Ly93d3cudzMub3JnLzIwMDAvc3ZnIiB3aWR0aD0iMzIiIGhlaWdodD0iMzIiIHZpZXdCb3g9IjAgMCAzMiAzMiI+PGRlZnM+PHN0eWxlPi5jbHMtMXtmaWxsOm5vbmU7fTwvc3R5bGU+PC9kZWZzPjx0aXRsZT52aXJ0dWFsLW1hY2hpbmU8L3RpdGxlPjxwYXRoIGQ9Ik0yMCwxM0gxMmEyLjAwMjUsMi4wMDI1LDAsMCwwLTIsMlYyOGEyLjAwMjUsMi4wMDI1LDAsMCwwLDIsMmg4YTIuMDAyNSwyLjAwMjUsMCwwLDAsMi0yVjE1QTIuMDAyNSwyLjAwMjUsMCwwLDAsMjAsMTNabTAsMiwwLDNIMTJWMTVabTAsNSwwLDNIMTJWMjBabS04LDhWMjVoOHYzWiIvPjxwYXRoIGQ9Ik0yNS45MSwxMC4xM2EuMTIxLjEyMSwwLDAsMS0uMDk2Ny0uMDk1MkExMC4wMDYxLDEwLjAwNjEsMCwwLDAsMTcuODksMi4xODE2LDEwLjAwMjUsMTAuMDAyNSwwLDAsMCw2LjE4NTgsMTAuMDM0N2EuMTIxMi4xMjEyLDAsMCwxLS4wOTY0LjA5NTdBNy41MDE5LDcuNTAxOSwwLDAsMCw3LjQ5MTIsMjVIOFYyM0g3LjQ5NTRhNS41MTA4LDUuNTEwOCwwLDAsMS01LjQzODctNi4zLDUuNjk5Miw1LjY5OTIsMCwwLDEsNC43MTM4LTQuNjYwNmwxLjAxNjYtLjE4MzZhLjEzMDYuMTMwNiwwLDAsMCwuMTA0NS0uMTAzNWwuMTgtLjkzNTFhOC4yOCw4LjI4LDAsMCwxLDYuODQ2OS02Ljc0MjcsNy45NTcsNy45NTcsMCwwLDEsMi44NDcxLjEyNDUsOC4yMiw4LjIyLDAsMCwxLDYuMTQ3NSw2LjU0NWwuMTk0MSwxLjAwODNhLjEzLjEzLDAsMCwwLC4xMDQ1LjEwMzVsMS4wNTc2LjE5MTRhNS43ODE5LDUuNzgxOSwwLDAsMSwzLjEwMTEsMS41MzlBNS41MDUyLDUuNTA1MiwwLDAsMSwyNC41MDc2LDIzSDI0djJoLjUwNzZBNy41MDE5LDcuNTAxOSwwLDAsMCwyNS45MSwxMC4xM1oiLz48cmVjdCBpZD0iX1RyYW5zcGFyZW50X1JlY3RhbmdsZV8iIGRhdGEtbmFtZT0iJmx0O1RyYW5zcGFyZW50IFJlY3RhbmdsZSZndDsiIGNsYXNzPSJjbHMtMSIgd2lkdGg9IjMyIiBoZWlnaHQ9IjMyIi8+PC9zdmc+;" vertex="1" parent="MP2px9YScLDvGAfy4hZi-47">
          <mxGeometry x="15" y="4.499999999999545" width="28" height="28" as="geometry" />
        </mxCell>
        <mxCell id="MP2px9YScLDvGAfy4hZi-61" value="NGINX" style="shape=image;aspect=fixed;image=data:image/svg+xml,PHN2ZyBpZD0iTGF5ZXJfMSIgZGF0YS1uYW1lPSJMYXllciAxIiB4bWxucz0iaHR0cDovL3d3dy53My5vcmcvMjAwMC9zdmciIHZpZXdCb3g9IjAgMCA0OSA0OSI+PGRlZnM+PHN0eWxlPi5jbHMtMXtmaWxsOiNhNTZlZmY7fS5jbHMtMntmaWxsOiNmZmY7fS5jbHMtM3tmaWxsOm5vbmU7fTwvc3R5bGU+PC9kZWZzPjxyZWN0IGNsYXNzPSJjbHMtMSIgeD0iMC41IiB5PSIwLjUiIHdpZHRoPSI0OCIgaGVpZ2h0PSI0OCIgcng9IjgiLz48cGF0aCBjbGFzcz0iY2xzLTIiIGQ9Ik0zMiwyNC41djMuNzVIMTd2LTEwaDcuNVYxN0gxN2ExLjI1LDEuMjUsMCwwLDAtMS4yNSwxLjI1djEwQTEuMjUsMS4yNSwwLDAsMCwxNywyOS41aDVWMzJIMTkuNXYxLjI1aDEwVjMySDI3VjI5LjVoNWExLjI1LDEuMjUsMCwwLDAsMS4yNS0xLjI1VjI0LjVaTTI1Ljc1LDMyaC0yLjVWMjkuNWgyLjVaIi8+PHJlY3QgY2xhc3M9ImNscy0yIiB4PSIzMC43NSIgeT0iMTUuNzUiIHdpZHRoPSIyLjUiIGhlaWdodD0iMi41Ii8+PHJlY3QgY2xhc3M9ImNscy0yIiB4PSIzMC43NSIgeT0iMTkuNSIgd2lkdGg9IjIuNSIgaGVpZ2h0PSIyLjUiLz48cmVjdCBjbGFzcz0iY2xzLTIiIHg9IjI3IiB5PSIxNS43NSIgd2lkdGg9IjIuNSIgaGVpZ2h0PSIyLjUiLz48cmVjdCBjbGFzcz0iY2xzLTIiIHg9IjI3IiB5PSIxOS41IiB3aWR0aD0iMi41IiBoZWlnaHQ9IjIuNSIvPjxyZWN0IGNsYXNzPSJjbHMtMyIgeD0iMTQuNSIgeT0iMTQuNSIgd2lkdGg9IjIwIiBoZWlnaHQ9IjIwIi8+PC9zdmc+;fontFamily=IBM Plex Sans;fontSource=fonts%2FIBMPlexSans-Regular.woff;labelPosition=center;verticalLabelPosition=bottom;align=center;verticalAlign=top;spacingTop=-7;fontSize=14;" vertex="1" parent="MP2px9YScLDvGAfy4hZi-47">
          <mxGeometry x="61" y="48" width="48" height="48" as="geometry" />
        </mxCell>
        <mxCell id="MP2px9YScLDvGAfy4hZi-62" value="PostgreSQL" style="shape=image;aspect=fixed;image=data:image/svg+xml,PHN2ZyBpZD0iTGF5ZXJfMSIgZGF0YS1uYW1lPSJMYXllciAxIiB4bWxucz0iaHR0cDovL3d3dy53My5vcmcvMjAwMC9zdmciIHZpZXdCb3g9IjAgMCA0OSA0OSI+PGRlZnM+PHN0eWxlPi5jbHMtMXtmaWxsOiMwZjYyZmU7fS5jbHMtMntmaWxsOm5vbmU7fS5jbHMtM3tmaWxsOiNmZmY7ZmlsbC1ydWxlOmV2ZW5vZGQ7fTwvc3R5bGU+PC9kZWZzPjxyZWN0IGNsYXNzPSJjbHMtMSIgeD0iMC41IiB5PSIwLjUiIHdpZHRoPSI0OCIgaGVpZ2h0PSI0OCIgcng9IjgiLz48cmVjdCBjbGFzcz0iY2xzLTIiIHg9IjE0LjUiIHk9IjE0LjUiIHdpZHRoPSIyMCIgaGVpZ2h0PSIyMCIvPjxwYXRoIGlkPSJGaWxsLTEiIGNsYXNzPSJjbHMtMyIgZD0iTTE4LjY1LDMyLjU5aDExLjdWMjguMjFIMTguNjVabTAtNS44NWgxMS43VjIyLjM2SDE4LjY1Wm0wLTUuODRoMTEuN1YxNi41MUgxOC42NVptMTEuNy01Ljg1SDE4LjY1YTEuNDYsMS40NiwwLDAsMC0xLjQ2LDEuNDZWMzIuNTlhMS40NiwxLjQ2LDAsMCwwLDEuNDYsMS40NmgxMS43YTEuNDYsMS40NiwwLDAsMCwxLjQ2LTEuNDZWMTYuNTFhMS40NiwxLjQ2LDAsMCwwLTEuNDYtMS40NloiLz48cGF0aCBpZD0iRmlsbC0zIiBjbGFzcz0iY2xzLTMiIGQ9Ik0yMC44NSwxOGEuNzQuNzQsMCwxLDEtLjc0LjczLjczLjczLDAsMCwxLC43NC0uNzMiLz48cGF0aCBpZD0iRmlsbC00IiBjbGFzcz0iY2xzLTMiIGQ9Ik0yMC44NSwyMy44MmEuNzMuNzMsMCwxLDEtLjc0LjczLjczLjczLDAsMCwxLC43NC0uNzMiLz48cGF0aCBpZD0iRmlsbC01IiBjbGFzcz0iY2xzLTMiIGQ9Ik0yMC44NSwyOS42N2EuNzMuNzMsMCwxLDEsMCwxLjQ2LjczLjczLDAsMSwxLDAtMS40NiIvPjwvc3ZnPg==;fontFamily=IBM Plex Sans;fontSource=fonts%2FIBMPlexSans-Regular.woff;fontSize=14;labelPosition=center;verticalLabelPosition=bottom;align=center;verticalAlign=top;spacingTop=-7;" vertex="1" parent="MP2px9YScLDvGAfy4hZi-47">
          <mxGeometry x="61" y="131" width="48" height="48" as="geometry" />
        </mxCell>
        <mxCell id="MP2px9YScLDvGAfy4hZi-51" value="" style="rounded=0;whiteSpace=wrap;html=1;fontFamily=IBM Plex Sans;fontSource=fonts%2FIBMPlexSans-Regular.woff;fontSize=14;spacingBottom=-28;spacingTop=0;labelPosition=-100;verticalLabelPosition=top;align=center;verticalAlign=bottom;spacingLeft=9;spacing=0;expand=0;recursiveResize=0;spacingRight=0;container=1;collapsible=0;fillColor=default;strokeColor=#198038;" vertex="1" parent="MP2px9YScLDvGAfy4hZi-71">
          <mxGeometry x="30" y="30" width="180" height="210" as="geometry">
            <mxRectangle width="670" as="alternateBounds" />
          </mxGeometry>
        </mxCell>
        <mxCell id="MP2px9YScLDvGAfy4hZi-52" value="" style="rounded=0;whiteSpace=wrap;html=1;strokeColor=none;fillColor=#198038;" vertex="1" parent="MP2px9YScLDvGAfy4hZi-51">
          <mxGeometry width="7" height="37" as="geometry" />
        </mxCell>
        <mxCell id="MP2px9YScLDvGAfy4hZi-53" value="Virtual Server" style="text;html=1;strokeColor=none;fillColor=none;align=left;verticalAlign=middle;whiteSpace=wrap;rounded=0;fontFamily=IBM Plex Sans;fontSource=fonts%2FIBMPlexSans-Regular.woff;fontSize=14;" vertex="1" parent="MP2px9YScLDvGAfy4hZi-51">
          <mxGeometry x="51" y="8" width="163" height="20" as="geometry" />
        </mxCell>
        <mxCell id="MP2px9YScLDvGAfy4hZi-54" value="" style="shape=image;aspect=fixed;image=data:image/svg+xml,PHN2ZyBpZD0iaWNvbiIgeG1sbnM9Imh0dHA6Ly93d3cudzMub3JnLzIwMDAvc3ZnIiB3aWR0aD0iMzIiIGhlaWdodD0iMzIiIHZpZXdCb3g9IjAgMCAzMiAzMiI+PGRlZnM+PHN0eWxlPi5jbHMtMXtmaWxsOm5vbmU7fTwvc3R5bGU+PC9kZWZzPjx0aXRsZT52aXJ0dWFsLW1hY2hpbmU8L3RpdGxlPjxwYXRoIGQ9Ik0yMCwxM0gxMmEyLjAwMjUsMi4wMDI1LDAsMCwwLTIsMlYyOGEyLjAwMjUsMi4wMDI1LDAsMCwwLDIsMmg4YTIuMDAyNSwyLjAwMjUsMCwwLDAsMi0yVjE1QTIuMDAyNSwyLjAwMjUsMCwwLDAsMjAsMTNabTAsMiwwLDNIMTJWMTVabTAsNSwwLDNIMTJWMjBabS04LDhWMjVoOHYzWiIvPjxwYXRoIGQ9Ik0yNS45MSwxMC4xM2EuMTIxLjEyMSwwLDAsMS0uMDk2Ny0uMDk1MkExMC4wMDYxLDEwLjAwNjEsMCwwLDAsMTcuODksMi4xODE2LDEwLjAwMjUsMTAuMDAyNSwwLDAsMCw2LjE4NTgsMTAuMDM0N2EuMTIxMi4xMjEyLDAsMCwxLS4wOTY0LjA5NTdBNy41MDE5LDcuNTAxOSwwLDAsMCw3LjQ5MTIsMjVIOFYyM0g3LjQ5NTRhNS41MTA4LDUuNTEwOCwwLDAsMS01LjQzODctNi4zLDUuNjk5Miw1LjY5OTIsMCwwLDEsNC43MTM4LTQuNjYwNmwxLjAxNjYtLjE4MzZhLjEzMDYuMTMwNiwwLDAsMCwuMTA0NS0uMTAzNWwuMTgtLjkzNTFhOC4yOCw4LjI4LDAsMCwxLDYuODQ2OS02Ljc0MjcsNy45NTcsNy45NTcsMCwwLDEsMi44NDcxLjEyNDUsOC4yMiw4LjIyLDAsMCwxLDYuMTQ3NSw2LjU0NWwuMTk0MSwxLjAwODNhLjEzLjEzLDAsMCwwLC4xMDQ1LjEwMzVsMS4wNTc2LjE5MTRhNS43ODE5LDUuNzgxOSwwLDAsMSwzLjEwMTEsMS41MzlBNS41MDUyLDUuNTA1MiwwLDAsMSwyNC41MDc2LDIzSDI0djJoLjUwNzZBNy41MDE5LDcuNTAxOSwwLDAsMCwyNS45MSwxMC4xM1oiLz48cmVjdCBpZD0iX1RyYW5zcGFyZW50X1JlY3RhbmdsZV8iIGRhdGEtbmFtZT0iJmx0O1RyYW5zcGFyZW50IFJlY3RhbmdsZSZndDsiIGNsYXNzPSJjbHMtMSIgd2lkdGg9IjMyIiBoZWlnaHQ9IjMyIi8+PC9zdmc+;" vertex="1" parent="MP2px9YScLDvGAfy4hZi-51">
          <mxGeometry x="15" y="4.499999999999545" width="28" height="28" as="geometry" />
        </mxCell>
        <mxCell id="MP2px9YScLDvGAfy4hZi-60" value="Connector&#xa;agent" style="shape=image;aspect=fixed;image=data:image/svg+xml,PHN2ZyBpZD0iTGF5ZXJfMSIgZGF0YS1uYW1lPSJMYXllciAxIiB4bWxucz0iaHR0cDovL3d3dy53My5vcmcvMjAwMC9zdmciIHhtbG5zOnhsaW5rPSJodHRwOi8vd3d3LnczLm9yZy8xOTk5L3hsaW5rIiB2aWV3Qm94PSIwIDAgNDkgNDkiPjxkZWZzPjxzdHlsZT4uY2xzLTF7ZmlsbDojZmZmO2ZpbGwtcnVsZTpldmVub2RkO30uY2xzLTJ7ZmlsbDojMTk4MDM4O30uY2xzLTN7ZmlsbDpub25lO30uY2xzLTR7bWFzazp1cmwoI21hc2spO30uY2xzLTV7bWFzazp1cmwoI21hc2stMi0yKTt9LmNscy02e21hc2s6dXJsKCNtYXNrLTMpO308L3N0eWxlPjxtYXNrIGlkPSJtYXNrIiB4PSIyNi42NCIgeT0iMjUuOTMiIHdpZHRoPSI2LjgxIiBoZWlnaHQ9IjYuODEiIG1hc2tVbml0cz0idXNlclNwYWNlT25Vc2UiPjxnIGlkPSJtYXNrLTIiPjxwb2x5Z29uIGlkPSJwYXRoLTEiIGNsYXNzPSJjbHMtMSIgcG9pbnRzPSIyNi42NCAyNS45MyAzMy40NSAyNS45MyAzMy40NSAzMi43NCAyNi42NCAzMi43NCAyNi42NCAyNS45MyIvPjwvZz48L21hc2s+PG1hc2sgaWQ9Im1hc2stMi0yIiB4PSIyMy4yMiIgeT0iMjYuNSIgd2lkdGg9IjYuODEiIGhlaWdodD0iNi44MSIgbWFza1VuaXRzPSJ1c2VyU3BhY2VPblVzZSI+PGcgaWQ9Im1hc2stNCI+PHBvbHlnb24gaWQ9InBhdGgtMyIgY2xhc3M9ImNscy0xIiBwb2ludHM9IjIzLjIzIDI2LjUgMzAuMDQgMjYuNSAzMC4wNCAzMy4zMSAyMy4yMyAzMy4zMSAyMy4yMyAyNi41Ii8+PC9nPjwvbWFzaz48bWFzayBpZD0ibWFzay0zIiB4PSIxNS44NyIgeT0iMTUuNjkiIHdpZHRoPSIxNC41MSIgaGVpZ2h0PSIxNS45MyIgbWFza1VuaXRzPSJ1c2VyU3BhY2VPblVzZSI+PGcgaWQ9Im1hc2stNiI+PHBvbHlnb24gaWQ9InBhdGgtNSIgY2xhc3M9ImNscy0xIiBwb2ludHM9IjE1Ljg3IDE1LjY5IDMwLjM4IDE1LjY5IDMwLjM4IDMxLjYxIDE1Ljg3IDMxLjYxIDE1Ljg3IDE1LjY5Ii8+PC9nPjwvbWFzaz48L2RlZnM+PHJlY3QgY2xhc3M9ImNscy0yIiB4PSIwLjUiIHk9IjAuNSIgd2lkdGg9IjQ4IiBoZWlnaHQ9IjQ4Ii8+PHJlY3QgY2xhc3M9ImNscy0zIiB4PSIxNC41IiB5PSIxNC41IiB3aWR0aD0iMjAiIGhlaWdodD0iMjAiLz48ZyBjbGFzcz0iY2xzLTQiPjxwYXRoIGlkPSJGaWxsLTEiIGNsYXNzPSJjbHMtMSIgZD0iTTMyLjg4LDI5LjMyLDMwLDMyLjE3YTIsMiwwLDAsMS0yLjgyLTIuODJsLjgxLjgxYS44NS44NSwwLDAsMCwxLjIxLDEuMmwyLjg0LTIuODRhLjg2Ljg2LDAsMCwwLTEuMjEtMS4yMWwtLjgtLjhhMiwyLDAsMCwxLDIuODIsMi44MVoiLz48L2c+PGcgY2xhc3M9ImNscy01Ij48cGF0aCBpZD0iRmlsbC00IiBjbGFzcz0iY2xzLTEiIGQ9Ik0yNi42NSwyNy4wOCwyMy44LDI5LjkyYTIsMiwwLDAsMCwyLjgyLDIuODJsLS44MS0uODFhLjg1Ljg1LDAsMCwxLTEuMi0xLjJsMi44NC0yLjg1YS44Ni44NiwwLDAsMSwxLjIxLDEuMjFsLjguOGEyLDIsMCwwLDAtMi44MS0yLjgxIi8+PC9nPjxwYXRoIGlkPSJGaWxsLTciIGNsYXNzPSJjbHMtMSIgZD0iTTE5LjI0LDI1LjM2YTEuMTQsMS4xNCwwLDEsMS0xLjE0LDEuMTMsMS4xNCwxLjE0LDAsMCwxLDEuMTQtMS4xMyIvPjxwYXRoIGlkPSJGaWxsLTkiIGNsYXNzPSJjbHMtMSIgZD0iTTIzLjIyLDIzLjA4YTEuMTQsMS4xNCwwLDEsMCwxLjE0LDEuMTQsMS4xNCwxLjE0LDAsMCwwLTEuMTQtMS4xNG0wLDMuNDFhMi4yOCwyLjI4LDAsMSwxLDIuMjctMi4yNywyLjI3LDIuMjcsMCwwLDEtMi4yNywyLjI3Ii8+PHBhdGggaWQ9IkZpbGwtMTEiIGNsYXNzPSJjbHMtMSIgZD0iTTI3LjIsMjAuODFhMS4xNCwxLjE0LDAsMSwxLTEuMTQsMS4xMywxLjE0LDEuMTQsMCwwLDEsMS4xNC0xLjEzIi8+PGcgY2xhc3M9ImNscy02Ij48cGF0aCBpZD0iRmlsbC0xMyIgY2xhc3M9ImNscy0xIiBkPSJNMjEuNzMsMzAuNjMsMTcsMjcuODdWMjAuNTZsNi4yNS0zLjY1LDYuNTQsMy44Mi41OC0xLTYuODMtNGEuNTguNTgsMCwwLDAtLjU3LDBsLTYuODMsNGEuNTYuNTYsMCwwLDAtLjI4LjQ5djhhLjU4LjU4LDAsMCwwLC4yOC40OWw1LDIuOTJaIi8+PC9nPjwvc3ZnPg==;fontSize=14;fontFamily=IBM Plex Sans;fontSource=fonts%2FIBMPlexSans-Regular.woff;spacingTop=-7;labelPosition=center;verticalLabelPosition=bottom;align=center;verticalAlign=top;imageBorder=default;" vertex="1" parent="MP2px9YScLDvGAfy4hZi-51">
          <mxGeometry x="62.5" y="84.5" width="48" height="48" as="geometry" />
        </mxCell>
        <mxCell id="MP2px9YScLDvGAfy4hZi-63" style="edgeStyle=orthogonalEdgeStyle;rounded=0;orthogonalLoop=1;jettySize=auto;html=1;entryX=0;entryY=0.5;entryDx=0;entryDy=0;exitX=1;exitY=0.25;exitDx=0;exitDy=0;" edge="1" parent="MP2px9YScLDvGAfy4hZi-71" source="MP2px9YScLDvGAfy4hZi-60" target="MP2px9YScLDvGAfy4hZi-61">
          <mxGeometry relative="1" as="geometry">
            <mxPoint x="147.5" y="131.5" as="sourcePoint" />
          </mxGeometry>
        </mxCell>
        <mxCell id="MP2px9YScLDvGAfy4hZi-64" style="edgeStyle=orthogonalEdgeStyle;rounded=0;orthogonalLoop=1;jettySize=auto;html=1;exitX=1;exitY=0.75;exitDx=0;exitDy=0;entryX=0;entryY=0.5;entryDx=0;entryDy=0;" edge="1" parent="MP2px9YScLDvGAfy4hZi-71" source="MP2px9YScLDvGAfy4hZi-60" target="MP2px9YScLDvGAfy4hZi-62">
          <mxGeometry relative="1" as="geometry">
            <mxPoint x="147.5" y="143.50000000000023" as="sourcePoint" />
          </mxGeometry>
        </mxCell>
        <mxCell id="MP2px9YScLDvGAfy4hZi-28" value="" style="rounded=0;whiteSpace=wrap;html=1;fontFamily=IBM Plex Sans;fontSource=fonts%2FIBMPlexSans-Regular.woff;fontSize=14;spacingBottom=-28;spacingTop=0;labelPosition=-100;verticalLabelPosition=top;align=center;verticalAlign=bottom;spacingLeft=9;spacing=0;expand=0;recursiveResize=0;spacingRight=0;container=1;collapsible=0;strokeColor=#1192E8;fillColor=default;" vertex="1" parent="MP2px9YScLDvGAfy4hZi-24">
          <mxGeometry x="330" y="60" width="170" height="190" as="geometry">
            <mxRectangle width="670" as="alternateBounds" />
          </mxGeometry>
        </mxCell>
        <mxCell id="MP2px9YScLDvGAfy4hZi-29" value="" style="rounded=0;whiteSpace=wrap;html=1;strokeColor=none;fillColor=#1192E8;" vertex="1" parent="MP2px9YScLDvGAfy4hZi-28">
          <mxGeometry width="7" height="37" as="geometry" />
        </mxCell>
        <mxCell id="MP2px9YScLDvGAfy4hZi-30" value="Satellite relay" style="text;html=1;strokeColor=none;fillColor=none;align=left;verticalAlign=middle;whiteSpace=wrap;rounded=0;fontFamily=IBM Plex Sans;fontSource=fonts%2FIBMPlexSans-Regular.woff;fontSize=14;" vertex="1" parent="MP2px9YScLDvGAfy4hZi-28">
          <mxGeometry x="51" y="8" width="163" height="20" as="geometry" />
        </mxCell>
        <mxCell id="MP2px9YScLDvGAfy4hZi-31" value="" style="shape=image;aspect=fixed;image=data:image/svg+xml,PD94bWwgdmVyc2lvbj0iMS4wIiBlbmNvZGluZz0iVVRGLTgiPz4KPHN2ZyB3aWR0aD0iMzNweCIgaGVpZ2h0PSIyNnB4IiB2aWV3Qm94PSIwIDAgMzMgMjYiIHZlcnNpb249IjEuMSIgeG1sbnM9Imh0dHA6Ly93d3cudzMub3JnLzIwMDAvc3ZnIiB4bWxuczp4bGluaz0iaHR0cDovL3d3dy53My5vcmcvMTk5OS94bGluayI+CiAgICA8IS0tIEdlbmVyYXRvcjogU2tldGNoIDUzICg3MjUyMCkgLSBodHRwczovL3NrZXRjaGFwcC5jb20gLS0+CiAgICA8dGl0bGU+Q2xvdWQgU2VydmljZXMgQmxhY2s8L3RpdGxlPgogICAgPGRlc2M+Q3JlYXRlZCB3aXRoIFNrZXRjaC48L2Rlc2M+CiAgICA8ZyBpZD0iUGFnZS0xIiBzdHJva2U9Im5vbmUiIHN0cm9rZS13aWR0aD0iMSIgZmlsbD0ibm9uZSIgZmlsbC1ydWxlPSJldmVub2RkIj4KICAgICAgICA8ZyBpZD0iQ2xvdWQtU2VydmljZXMtQmxhY2siIHRyYW5zZm9ybT0idHJhbnNsYXRlKDAuMDYyNTAwLCAtMS4wMDAwMDApIiBmaWxsPSIjMDAwMDAwIj4KICAgICAgICAgICAgPGcgaWQ9Ikdyb3VwLTMiIHRyYW5zZm9ybT0idHJhbnNsYXRlKDAuMDAwMDAwLCAwLjAwMjAwMCkiPgogICAgICAgICAgICAgICAgPHBhdGggZD0iTTI1LjgyMzEsOS4xMjQgQzI0Ljc4NzEsMy43IDE5LjU1MTEsMC4xNDIgMTQuMTI2MSwxLjE3NyBDMTAuMDk4MSwxLjk0NiA2Ljk0ODEsNS4wOTYgNi4xNzkxLDkuMTI0IEMwLjA5MjEsMTAuMjExIC0yLjk1NzksMTguMzYzIDMuOTY0MSwyMy42MzIgQzQuMjg1MSwyMy44NzcgNC42ODkxLDI0IDUuMDkzMSwyNCBMOC4wMDExLDI0IEw4LjAwMTEsMjIgTDUuNDQ4MSwyMiBDNS4xMDQxLDIyIDQuNzYyMSwyMS44NzcgNC41MTExLDIxLjY0MiBDLTAuMzUzOSwxNy4wODYgMi41ODYxLDExLjMzIDcuMTI0MSwxMS4wMiBMNy45NjExLDEwLjk2MyBMOC4zNTYxLDcuMjk4IEM4LjQwNzEsNi44MzIgOC42MTMxLDYuMzg2IDguOTU3MSw2LjA2NyBDMTUuNjAxMSwtMC4wOTQgMjMuMjc2MSwzLjkzNyAyMy45NTIxLDEwLjEzIEwyNC4wNDIxLDEwLjk2MyBMMjYuOTI2MSwxMS4xNiBDMjcuMjY5MSwxMS4xODQgMjcuNjAxMSwxMS4zMyAyNy44MzUxLDExLjU4MiBDMzIuMzc5MSwxNi40NiAyOS4wNTAxLDIyLjAwMyAyNC41MDExLDIyIEwyNC4wMDExLDIyIEwyNC4wMDExLDI0IEwyNy4yMTUxLDI0IEMyNy42NjExLDI0IDI4LjEwMzEsMjMuODQ4IDI4LjQzNzEsMjMuNTUyIEMzNC45MTQxLDE3LjgxNiAzMS42NjgxLDEwLjE2OCAyNS44MjMxLDkuMTI0IiBpZD0iRmlsbC0xIj48L3BhdGg+CiAgICAgICAgICAgIDwvZz4KICAgICAgICAgICAgPHBhdGggZD0iTTE1LjU3NCwyMi44MjU3IEMxMy45MTcsMjIuODI1NyAxMi41NzQsMjEuNDgyNyAxMi41NzQsMTkuODI1NyBDMTIuNTc0LDE4LjE2ODcgMTMuOTE3LDE2LjgyNTcgMTUuNTc0LDE2LjgyNTcgQzE3LjIzMSwxNi44MjU3IDE4LjU3NCwxOC4xNjg3IDE4LjU3NCwxOS44MjU3IEMxOC41NzIsMjEuNDgxNyAxNy4yMywyMi44MjM3IDE1LjU3NCwyMi44MjU3IEwxNS41NzQsMjIuODI1NyBaIE0yMy4wMDEsMjEuMDAxNyBMMjMuMDAxLDE5LjAwMTcgTDIwLjksMTkuMDAxNyBDMjAuNzcxLDE4LjM3NTcgMjAuNTIzLDE3Ljc4MDcgMjAuMTY4LDE3LjI0ODcgTDIxLjY1OCwxNS43NTk3IEwyMC4yNDQsMTQuMzQ1NyBMMTguNzU0LDE1LjgzNDcgQzE4LjIyMiwxNS40ODA3IDE3LjYyNywxNS4yMzE3IDE3LjAwMSwxNS4xMDI3IEwxNy4wMDEsMTMuMDAxNyBMMTUuMDAxLDEzLjAwMTcgTDE1LjAwMSwxNS4xMDI3IEMxNC4zNzUsMTUuMjMxNyAxMy43OCwxNS40ODA3IDEzLjI0OCwxNS44MzQ3IEwxMS43NTgsMTQuMzQ0NyBMMTAuMzQ1LDE1Ljc1ODcgTDExLjgzNCwxNy4yNDg3IEMxMS40OCwxNy43ODA3IDExLjIzMSwxOC4zNzU3IDExLjEwMiwxOS4wMDE3IEw5LjAwMSwxOS4wMDE3IEw5LjAwMSwyMS4wMDE3IEwxMS4xMDIsMjEuMDAxNyBDMTEuMjMxLDIxLjYyNzcgMTEuNDgsMjIuMjIyNyAxMS44MzQsMjIuNzU0NyBMMTAuMzQ0LDI0LjI0NDcgTDExLjc1OCwyNS42NTg3IEwxMy4yNDgsMjQuMTY4NyBDMTMuNzgsMjQuNTIzNyAxNC4zNzUsMjQuNzcxNyAxNS4wMDEsMjQuOTAwNyBMMTUuMDAxLDI3LjAwMTcgTDE3LjAwMSwyNy4wMDE3IEwxNy4wMDEsMjQuOTAwNyBDMTcuNjI3LDI0Ljc3MTcgMTguMjIyLDI0LjUyMzcgMTguNzU0LDI0LjE2ODcgTDIwLjI0NCwyNS42NTg3IEwyMS42NTgsMjQuMjQ0NyBMMjAuMTY4LDIyLjc1NDcgQzIwLjUyMywyMi4yMjI3IDIwLjc3MSwyMS42Mjc3IDIwLjksMjEuMDAxNyBMMjMuMDAxLDIxLjAwMTcgWiIgaWQ9IkZpbGwtNCI+PC9wYXRoPgogICAgICAgIDwvZz4KICAgIDwvZz4KPC9zdmc+;" vertex="1" parent="MP2px9YScLDvGAfy4hZi-28">
          <mxGeometry x="20" y="6.65" width="25" height="19.71" as="geometry" />
        </mxCell>
        <mxCell id="MP2px9YScLDvGAfy4hZi-15" value="Connector &#xa;tunnel server" style="shape=image;aspect=fixed;image=data:image/svg+xml,PHN2ZyBpZD0iTGF5ZXJfMSIgZGF0YS1uYW1lPSJMYXllciAxIiB4bWxucz0iaHR0cDovL3d3dy53My5vcmcvMjAwMC9zdmciIHhtbG5zOnhsaW5rPSJodHRwOi8vd3d3LnczLm9yZy8xOTk5L3hsaW5rIiB2aWV3Qm94PSIwIDAgNDkgNDkiPjxkZWZzPjxzdHlsZT4uY2xzLTF7ZmlsbDojZmZmO2ZpbGwtcnVsZTpldmVub2RkO30uY2xzLTJ7ZmlsbDojMTk4MDM4O30uY2xzLTN7ZmlsbDpub25lO30uY2xzLTR7bWFzazp1cmwoI21hc2spO30uY2xzLTV7bWFzazp1cmwoI21hc2stMi0yKTt9LmNscy02e21hc2s6dXJsKCNtYXNrLTMpO308L3N0eWxlPjxtYXNrIGlkPSJtYXNrIiB4PSIyNi42NCIgeT0iMjUuOTMiIHdpZHRoPSI2LjgxIiBoZWlnaHQ9IjYuODEiIG1hc2tVbml0cz0idXNlclNwYWNlT25Vc2UiPjxnIGlkPSJtYXNrLTIiPjxwb2x5Z29uIGlkPSJwYXRoLTEiIGNsYXNzPSJjbHMtMSIgcG9pbnRzPSIyNi42NCAyNS45MyAzMy40NSAyNS45MyAzMy40NSAzMi43NCAyNi42NCAzMi43NCAyNi42NCAyNS45MyIvPjwvZz48L21hc2s+PG1hc2sgaWQ9Im1hc2stMi0yIiB4PSIyMy4yMiIgeT0iMjYuNSIgd2lkdGg9IjYuODEiIGhlaWdodD0iNi44MSIgbWFza1VuaXRzPSJ1c2VyU3BhY2VPblVzZSI+PGcgaWQ9Im1hc2stNCI+PHBvbHlnb24gaWQ9InBhdGgtMyIgY2xhc3M9ImNscy0xIiBwb2ludHM9IjIzLjIzIDI2LjUgMzAuMDQgMjYuNSAzMC4wNCAzMy4zMSAyMy4yMyAzMy4zMSAyMy4yMyAyNi41Ii8+PC9nPjwvbWFzaz48bWFzayBpZD0ibWFzay0zIiB4PSIxNS44NyIgeT0iMTUuNjkiIHdpZHRoPSIxNC41MSIgaGVpZ2h0PSIxNS45MyIgbWFza1VuaXRzPSJ1c2VyU3BhY2VPblVzZSI+PGcgaWQ9Im1hc2stNiI+PHBvbHlnb24gaWQ9InBhdGgtNSIgY2xhc3M9ImNscy0xIiBwb2ludHM9IjE1Ljg3IDE1LjY5IDMwLjM4IDE1LjY5IDMwLjM4IDMxLjYxIDE1Ljg3IDMxLjYxIDE1Ljg3IDE1LjY5Ii8+PC9nPjwvbWFzaz48L2RlZnM+PHJlY3QgY2xhc3M9ImNscy0yIiB4PSIwLjUiIHk9IjAuNSIgd2lkdGg9IjQ4IiBoZWlnaHQ9IjQ4Ii8+PHJlY3QgY2xhc3M9ImNscy0zIiB4PSIxNC41IiB5PSIxNC41IiB3aWR0aD0iMjAiIGhlaWdodD0iMjAiLz48ZyBjbGFzcz0iY2xzLTQiPjxwYXRoIGlkPSJGaWxsLTEiIGNsYXNzPSJjbHMtMSIgZD0iTTMyLjg4LDI5LjMyLDMwLDMyLjE3YTIsMiwwLDAsMS0yLjgyLTIuODJsLjgxLjgxYS44NS44NSwwLDAsMCwxLjIxLDEuMmwyLjg0LTIuODRhLjg2Ljg2LDAsMCwwLTEuMjEtMS4yMWwtLjgtLjhhMiwyLDAsMCwxLDIuODIsMi44MVoiLz48L2c+PGcgY2xhc3M9ImNscy01Ij48cGF0aCBpZD0iRmlsbC00IiBjbGFzcz0iY2xzLTEiIGQ9Ik0yNi42NSwyNy4wOCwyMy44LDI5LjkyYTIsMiwwLDAsMCwyLjgyLDIuODJsLS44MS0uODFhLjg1Ljg1LDAsMCwxLTEuMi0xLjJsMi44NC0yLjg1YS44Ni44NiwwLDAsMSwxLjIxLDEuMjFsLjguOGEyLDIsMCwwLDAtMi44MS0yLjgxIi8+PC9nPjxwYXRoIGlkPSJGaWxsLTciIGNsYXNzPSJjbHMtMSIgZD0iTTE5LjI0LDI1LjM2YTEuMTQsMS4xNCwwLDEsMS0xLjE0LDEuMTMsMS4xNCwxLjE0LDAsMCwxLDEuMTQtMS4xMyIvPjxwYXRoIGlkPSJGaWxsLTkiIGNsYXNzPSJjbHMtMSIgZD0iTTIzLjIyLDIzLjA4YTEuMTQsMS4xNCwwLDEsMCwxLjE0LDEuMTQsMS4xNCwxLjE0LDAsMCwwLTEuMTQtMS4xNG0wLDMuNDFhMi4yOCwyLjI4LDAsMSwxLDIuMjctMi4yNywyLjI3LDIuMjcsMCwwLDEtMi4yNywyLjI3Ii8+PHBhdGggaWQ9IkZpbGwtMTEiIGNsYXNzPSJjbHMtMSIgZD0iTTI3LjIsMjAuODFhMS4xNCwxLjE0LDAsMSwxLTEuMTQsMS4xMywxLjE0LDEuMTQsMCwwLDEsMS4xNC0xLjEzIi8+PGcgY2xhc3M9ImNscy02Ij48cGF0aCBpZD0iRmlsbC0xMyIgY2xhc3M9ImNscy0xIiBkPSJNMjEuNzMsMzAuNjMsMTcsMjcuODdWMjAuNTZsNi4yNS0zLjY1LDYuNTQsMy44Mi41OC0xLTYuODMtNGEuNTguNTgsMCwwLDAtLjU3LDBsLTYuODMsNGEuNTYuNTYsMCwwLDAtLjI4LjQ5djhhLjU4LjU4LDAsMCwwLC4yOC40OWw1LDIuOTJaIi8+PC9nPjwvc3ZnPg==;fontSize=14;fontFamily=IBM Plex Sans;fontSource=fonts%2FIBMPlexSans-Regular.woff;spacingTop=-7;labelPosition=center;verticalLabelPosition=bottom;align=center;verticalAlign=top;" vertex="1" parent="MP2px9YScLDvGAfy4hZi-28">
          <mxGeometry x="61" y="70" width="48" height="48" as="geometry" />
        </mxCell>
        <mxCell id="MP2px9YScLDvGAfy4hZi-38" style="edgeStyle=orthogonalEdgeStyle;rounded=0;orthogonalLoop=1;jettySize=auto;html=1;entryX=0;entryY=0.25;entryDx=0;entryDy=0;exitX=1;exitY=0.25;exitDx=0;exitDy=0;" edge="1" parent="MP2px9YScLDvGAfy4hZi-24" source="MP2px9YScLDvGAfy4hZi-34" target="MP2px9YScLDvGAfy4hZi-15">
          <mxGeometry relative="1" as="geometry">
            <mxPoint x="170" y="140" as="sourcePoint" />
            <mxPoint x="390" y="140" as="targetPoint" />
          </mxGeometry>
        </mxCell>
        <mxCell id="MP2px9YScLDvGAfy4hZi-39" style="edgeStyle=orthogonalEdgeStyle;rounded=0;orthogonalLoop=1;jettySize=auto;html=1;entryX=0;entryY=0.5;entryDx=0;entryDy=0;" edge="1" parent="MP2px9YScLDvGAfy4hZi-24" source="MP2px9YScLDvGAfy4hZi-35" target="MP2px9YScLDvGAfy4hZi-15">
          <mxGeometry relative="1" as="geometry">
            <Array as="points">
              <mxPoint x="280" y="249" />
              <mxPoint x="280" y="154" />
            </Array>
          </mxGeometry>
        </mxCell>
        <mxCell id="MP2px9YScLDvGAfy4hZi-40" style="edgeStyle=orthogonalEdgeStyle;rounded=0;orthogonalLoop=1;jettySize=auto;html=1;exitX=1;exitY=0.5;exitDx=0;exitDy=0;entryX=0;entryY=0.75;entryDx=0;entryDy=0;" edge="1" parent="MP2px9YScLDvGAfy4hZi-24" source="MP2px9YScLDvGAfy4hZi-37" target="MP2px9YScLDvGAfy4hZi-15">
          <mxGeometry relative="1" as="geometry">
            <Array as="points">
              <mxPoint x="300" y="343" />
              <mxPoint x="300" y="166" />
            </Array>
          </mxGeometry>
        </mxCell>
        <mxCell id="MP2px9YScLDvGAfy4hZi-46" value="&lt;font color=&quot;#ffffff&quot;&gt;Tunnel&lt;/font&gt;" style="strokeWidth=1;html=1;shape=mxgraph.flowchart.direct_data;whiteSpace=wrap;fillColor=#808080;" vertex="1" parent="MP2px9YScLDvGAfy4hZi-24">
          <mxGeometry x="530" y="145" width="100" height="20" as="geometry" />
        </mxCell>
        <mxCell id="MP2px9YScLDvGAfy4hZi-65" style="edgeStyle=orthogonalEdgeStyle;rounded=0;orthogonalLoop=1;jettySize=auto;html=1;exitX=1;exitY=0.5;exitDx=0;exitDy=0;entryX=0;entryY=0.5;entryDx=0;entryDy=0;entryPerimeter=0;" edge="1" parent="MP2px9YScLDvGAfy4hZi-24" source="MP2px9YScLDvGAfy4hZi-15" target="MP2px9YScLDvGAfy4hZi-46">
          <mxGeometry relative="1" as="geometry" />
        </mxCell>
        <mxCell id="MP2px9YScLDvGAfy4hZi-66" style="edgeStyle=orthogonalEdgeStyle;rounded=0;orthogonalLoop=1;jettySize=auto;html=1;exitX=1;exitY=0.5;exitDx=0;exitDy=0;exitPerimeter=0;entryX=0;entryY=0.5;entryDx=0;entryDy=0;" edge="1" parent="MP2px9YScLDvGAfy4hZi-24" source="MP2px9YScLDvGAfy4hZi-46" target="MP2px9YScLDvGAfy4hZi-60">
          <mxGeometry relative="1" as="geometry">
            <Array as="points">
              <mxPoint x="660" y="155" />
              <mxPoint x="660" y="340" />
              <mxPoint x="856" y="340" />
            </Array>
          </mxGeometry>
        </mxCell>
        <mxCell id="MP2px9YScLDvGAfy4hZi-90" style="edgeStyle=orthogonalEdgeStyle;rounded=0;orthogonalLoop=1;jettySize=auto;html=1;exitX=1;exitY=0.5;exitDx=0;exitDy=0;entryX=0;entryY=0.25;entryDx=0;entryDy=0;" edge="1" parent="1" source="MP2px9YScLDvGAfy4hZi-72" target="MP2px9YScLDvGAfy4hZi-73">
          <mxGeometry relative="1" as="geometry">
            <Array as="points">
              <mxPoint x="650" y="834" />
              <mxPoint x="650" y="902" />
            </Array>
          </mxGeometry>
        </mxCell>
        <mxCell id="MP2px9YScLDvGAfy4hZi-91" value="SELECT * FROM XYZ" style="edgeLabel;html=1;align=left;verticalAlign=middle;resizable=0;points=[];fontStyle=2" vertex="1" connectable="0" parent="MP2px9YScLDvGAfy4hZi-90">
          <mxGeometry x="-0.8304" y="3" relative="1" as="geometry">
            <mxPoint x="-7" y="-11" as="offset" />
          </mxGeometry>
        </mxCell>
        <mxCell id="MP2px9YScLDvGAfy4hZi-96" value="postgres://c-01.private.us-south.link.satellite.cloud.ibm.com:33009" style="edgeLabel;html=1;align=left;verticalAlign=middle;resizable=0;points=[];fontStyle=1;fontColor=#000099;" vertex="1" connectable="0" parent="MP2px9YScLDvGAfy4hZi-90">
          <mxGeometry x="-0.0403" y="-1" relative="1" as="geometry">
            <mxPoint x="57" y="131" as="offset" />
          </mxGeometry>
        </mxCell>
        <mxCell id="MP2px9YScLDvGAfy4hZi-72" value="Code Engine Application" style="shape=image;aspect=fixed;image=data:image/svg+xml,PHN2ZyBpZD0iTGF5ZXJfMSIgZGF0YS1uYW1lPSJMYXllciAxIiB4bWxucz0iaHR0cDovL3d3dy53My5vcmcvMjAwMC9zdmciIHZpZXdCb3g9IjAgMCA0OSA0OSI+PGRlZnM+PHN0eWxlPi5jbHMtMXtmaWxsOiNhNTZlZmY7fS5jbHMtMntmaWxsOm5vbmU7fS5jbHMtM3tmaWxsOiNmZmY7ZmlsbC1ydWxlOmV2ZW5vZGQ7fTwvc3R5bGU+PC9kZWZzPjxyZWN0IGNsYXNzPSJjbHMtMSIgeD0iMC41IiB5PSIwLjUiIHdpZHRoPSI0OCIgaGVpZ2h0PSI0OCIgcng9IjgiLz48cmVjdCBjbGFzcz0iY2xzLTIiIHg9IjE0LjczIiB5PSIxNC41IiB3aWR0aD0iMjAiIGhlaWdodD0iMjAiLz48cmVjdCBjbGFzcz0iY2xzLTIiIHg9IjE0LjUiIHk9IjE0LjUiIHdpZHRoPSIyMCIgaGVpZ2h0PSIyMCIvPjxwYXRoIGlkPSJGaWxsLTEiIGNsYXNzPSJjbHMtMyIgZD0iTTE2LjI1LDI0LjIySDI0VjE2LjQ5SDE2LjI1Wk0yNCwyNS43N0gxNi4yNWExLjU0LDEuNTQsMCwwLDEtMS41NC0xLjU1VjE2LjQ5YTEuNTUsMS41NSwwLDAsMSwxLjU0LTEuNTVIMjRhMS41NSwxLjU1LDAsMCwxLDEuNTUsMS41NXY3LjczQTEuNTQsMS41NCwwLDAsMSwyNCwyNS43N1oiLz48cGF0aCBpZD0iRmlsbC0zIiBjbGFzcz0iY2xzLTMiIGQ9Ik0zMS43MiwxOS41OGgtMy4xYTEuNTUsMS41NSwwLDAsMC0xLjU0LDEuNTV2My4wOWExLjU0LDEuNTQsMCwwLDAsMS41NCwxLjU1aDMuMWExLjU0LDEuNTQsMCwwLDAsMS41NC0xLjU1VjIxLjEzYTEuNTUsMS41NSwwLDAsMC0xLjU0LTEuNTVabS0zLjEsNC42NGgzLjFWMjEuMTNoLTMuMVoiLz48cGF0aCBpZD0iRmlsbC00IiBjbGFzcz0iY2xzLTMiIGQ9Ik0zMS43MiwyNy4zMWgtMy4xYTEuNTUsMS41NSwwLDAsMC0xLjU0LDEuNTVWMzJhMS41NCwxLjU0LDAsMCwwLDEuNTQsMS41NWgzLjFBMS41NCwxLjU0LDAsMCwwLDMzLjI2LDMyVjI4Ljg2YTEuNTUsMS41NSwwLDAsMC0xLjU0LTEuNTVaTTI4LjYyLDMyaDMuMVYyOC44NmgtMy4xWiIvPjxwYXRoIGlkPSJGaWxsLTUiIGNsYXNzPSJjbHMtMyIgZD0iTTI0LDI3LjMxSDIwLjg5YTEuNTUsMS41NSwwLDAsMC0xLjU0LDEuNTVWMzJhMS41NCwxLjU0LDAsMCwwLDEuNTQsMS41NUgyNEExLjU0LDEuNTQsMCwwLDAsMjUuNTMsMzJWMjguODZBMS41NSwxLjU1LDAsMCwwLDI0LDI3LjMxWk0yMC44OSwzMkgyNFYyOC44NkgyMC44OVoiLz48L3N2Zz4=;fontFamily=IBM Plex Sans;fontSource=fonts%2FIBMPlexSans-Regular.woff;fontSize=14;labelPosition=center;verticalLabelPosition=bottom;align=center;verticalAlign=top;spacingTop=-7;" vertex="1" parent="1">
          <mxGeometry x="330" y="810" width="48" height="48" as="geometry" />
        </mxCell>
        <mxCell id="MP2px9YScLDvGAfy4hZi-99" style="edgeStyle=orthogonalEdgeStyle;rounded=0;orthogonalLoop=1;jettySize=auto;html=1;exitX=1;exitY=0.5;exitDx=0;exitDy=0;entryX=0;entryY=0.5;entryDx=0;entryDy=0;" edge="1" parent="1" source="MP2px9YScLDvGAfy4hZi-73" target="MP2px9YScLDvGAfy4hZi-77">
          <mxGeometry relative="1" as="geometry" />
        </mxCell>
        <mxCell id="MP2px9YScLDvGAfy4hZi-73" value="Satellite Connector" style="shape=image;aspect=fixed;image=data:image/svg+xml,PHN2ZyBpZD0iTGF5ZXJfMSIgZGF0YS1uYW1lPSJMYXllciAxIiB4bWxucz0iaHR0cDovL3d3dy53My5vcmcvMjAwMC9zdmciIHhtbG5zOnhsaW5rPSJodHRwOi8vd3d3LnczLm9yZy8xOTk5L3hsaW5rIiB2aWV3Qm94PSIwIDAgNDkgNDkiPjxkZWZzPjxzdHlsZT4uY2xzLTF7ZmlsbDojZmZmO2ZpbGwtcnVsZTpldmVub2RkO30uY2xzLTJ7ZmlsbDojMTk4MDM4O30uY2xzLTN7ZmlsbDpub25lO30uY2xzLTR7bWFzazp1cmwoI21hc2spO30uY2xzLTV7bWFzazp1cmwoI21hc2stMi0yKTt9LmNscy02e21hc2s6dXJsKCNtYXNrLTMpO308L3N0eWxlPjxtYXNrIGlkPSJtYXNrIiB4PSIyNi42NCIgeT0iMjUuOTMiIHdpZHRoPSI2LjgxIiBoZWlnaHQ9IjYuODEiIG1hc2tVbml0cz0idXNlclNwYWNlT25Vc2UiPjxnIGlkPSJtYXNrLTIiPjxwb2x5Z29uIGlkPSJwYXRoLTEiIGNsYXNzPSJjbHMtMSIgcG9pbnRzPSIyNi42NCAyNS45MyAzMy40NSAyNS45MyAzMy40NSAzMi43NCAyNi42NCAzMi43NCAyNi42NCAyNS45MyIvPjwvZz48L21hc2s+PG1hc2sgaWQ9Im1hc2stMi0yIiB4PSIyMy4yMiIgeT0iMjYuNSIgd2lkdGg9IjYuODEiIGhlaWdodD0iNi44MSIgbWFza1VuaXRzPSJ1c2VyU3BhY2VPblVzZSI+PGcgaWQ9Im1hc2stNCI+PHBvbHlnb24gaWQ9InBhdGgtMyIgY2xhc3M9ImNscy0xIiBwb2ludHM9IjIzLjIzIDI2LjUgMzAuMDQgMjYuNSAzMC4wNCAzMy4zMSAyMy4yMyAzMy4zMSAyMy4yMyAyNi41Ii8+PC9nPjwvbWFzaz48bWFzayBpZD0ibWFzay0zIiB4PSIxNS44NyIgeT0iMTUuNjkiIHdpZHRoPSIxNC41MSIgaGVpZ2h0PSIxNS45MyIgbWFza1VuaXRzPSJ1c2VyU3BhY2VPblVzZSI+PGcgaWQ9Im1hc2stNiI+PHBvbHlnb24gaWQ9InBhdGgtNSIgY2xhc3M9ImNscy0xIiBwb2ludHM9IjE1Ljg3IDE1LjY5IDMwLjM4IDE1LjY5IDMwLjM4IDMxLjYxIDE1Ljg3IDMxLjYxIDE1Ljg3IDE1LjY5Ii8+PC9nPjwvbWFzaz48L2RlZnM+PHJlY3QgY2xhc3M9ImNscy0yIiB4PSIwLjUiIHk9IjAuNSIgd2lkdGg9IjQ4IiBoZWlnaHQ9IjQ4Ii8+PHJlY3QgY2xhc3M9ImNscy0zIiB4PSIxNC41IiB5PSIxNC41IiB3aWR0aD0iMjAiIGhlaWdodD0iMjAiLz48ZyBjbGFzcz0iY2xzLTQiPjxwYXRoIGlkPSJGaWxsLTEiIGNsYXNzPSJjbHMtMSIgZD0iTTMyLjg4LDI5LjMyLDMwLDMyLjE3YTIsMiwwLDAsMS0yLjgyLTIuODJsLjgxLjgxYS44NS44NSwwLDAsMCwxLjIxLDEuMmwyLjg0LTIuODRhLjg2Ljg2LDAsMCwwLTEuMjEtMS4yMWwtLjgtLjhhMiwyLDAsMCwxLDIuODIsMi44MVoiLz48L2c+PGcgY2xhc3M9ImNscy01Ij48cGF0aCBpZD0iRmlsbC00IiBjbGFzcz0iY2xzLTEiIGQ9Ik0yNi42NSwyNy4wOCwyMy44LDI5LjkyYTIsMiwwLDAsMCwyLjgyLDIuODJsLS44MS0uODFhLjg1Ljg1LDAsMCwxLTEuMi0xLjJsMi44NC0yLjg1YS44Ni44NiwwLDAsMSwxLjIxLDEuMjFsLjguOGEyLDIsMCwwLDAtMi44MS0yLjgxIi8+PC9nPjxwYXRoIGlkPSJGaWxsLTciIGNsYXNzPSJjbHMtMSIgZD0iTTE5LjI0LDI1LjM2YTEuMTQsMS4xNCwwLDEsMS0xLjE0LDEuMTMsMS4xNCwxLjE0LDAsMCwxLDEuMTQtMS4xMyIvPjxwYXRoIGlkPSJGaWxsLTkiIGNsYXNzPSJjbHMtMSIgZD0iTTIzLjIyLDIzLjA4YTEuMTQsMS4xNCwwLDEsMCwxLjE0LDEuMTQsMS4xNCwxLjE0LDAsMCwwLTEuMTQtMS4xNG0wLDMuNDFhMi4yOCwyLjI4LDAsMSwxLDIuMjctMi4yNywyLjI3LDIuMjcsMCwwLDEtMi4yNywyLjI3Ii8+PHBhdGggaWQ9IkZpbGwtMTEiIGNsYXNzPSJjbHMtMSIgZD0iTTI3LjIsMjAuODFhMS4xNCwxLjE0LDAsMSwxLTEuMTQsMS4xMywxLjE0LDEuMTQsMCwwLDEsMS4xNC0xLjEzIi8+PGcgY2xhc3M9ImNscy02Ij48cGF0aCBpZD0iRmlsbC0xMyIgY2xhc3M9ImNscy0xIiBkPSJNMjEuNzMsMzAuNjMsMTcsMjcuODdWMjAuNTZsNi4yNS0zLjY1LDYuNTQsMy44Mi41OC0xLTYuODMtNGEuNTguNTgsMCwwLDAtLjU3LDBsLTYuODMsNGEuNTYuNTYsMCwwLDAtLjI4LjQ5djhhLjU4LjU4LDAsMCwwLC4yOC40OWw1LDIuOTJaIi8+PC9nPjwvc3ZnPg==;fontSize=14;fontFamily=IBM Plex Sans;fontSource=fonts%2FIBMPlexSans-Regular.woff;spacingTop=-7;labelPosition=center;verticalLabelPosition=bottom;align=center;verticalAlign=top;" vertex="1" parent="1">
          <mxGeometry x="820" y="890" width="48" height="48" as="geometry" />
        </mxCell>
        <mxCell id="MP2px9YScLDvGAfy4hZi-77" value="PostgreSQL" style="shape=image;aspect=fixed;image=data:image/svg+xml,PHN2ZyBpZD0iTGF5ZXJfMSIgZGF0YS1uYW1lPSJMYXllciAxIiB4bWxucz0iaHR0cDovL3d3dy53My5vcmcvMjAwMC9zdmciIHZpZXdCb3g9IjAgMCA0OSA0OSI+PGRlZnM+PHN0eWxlPi5jbHMtMXtmaWxsOiMwZjYyZmU7fS5jbHMtMntmaWxsOm5vbmU7fS5jbHMtM3tmaWxsOiNmZmY7ZmlsbC1ydWxlOmV2ZW5vZGQ7fTwvc3R5bGU+PC9kZWZzPjxyZWN0IGNsYXNzPSJjbHMtMSIgeD0iMC41IiB5PSIwLjUiIHdpZHRoPSI0OCIgaGVpZ2h0PSI0OCIgcng9IjgiLz48cmVjdCBjbGFzcz0iY2xzLTIiIHg9IjE0LjUiIHk9IjE0LjUiIHdpZHRoPSIyMCIgaGVpZ2h0PSIyMCIvPjxwYXRoIGlkPSJGaWxsLTEiIGNsYXNzPSJjbHMtMyIgZD0iTTE4LjY1LDMyLjU5aDExLjdWMjguMjFIMTguNjVabTAtNS44NWgxMS43VjIyLjM2SDE4LjY1Wm0wLTUuODRoMTEuN1YxNi41MUgxOC42NVptMTEuNy01Ljg1SDE4LjY1YTEuNDYsMS40NiwwLDAsMC0xLjQ2LDEuNDZWMzIuNTlhMS40NiwxLjQ2LDAsMCwwLDEuNDYsMS40NmgxMS43YTEuNDYsMS40NiwwLDAsMCwxLjQ2LTEuNDZWMTYuNTFhMS40NiwxLjQ2LDAsMCwwLTEuNDYtMS40NloiLz48cGF0aCBpZD0iRmlsbC0zIiBjbGFzcz0iY2xzLTMiIGQ9Ik0yMC44NSwxOGEuNzQuNzQsMCwxLDEtLjc0LjczLjczLjczLDAsMCwxLC43NC0uNzMiLz48cGF0aCBpZD0iRmlsbC00IiBjbGFzcz0iY2xzLTMiIGQ9Ik0yMC44NSwyMy44MmEuNzMuNzMsMCwxLDEtLjc0LjczLjczLjczLDAsMCwxLC43NC0uNzMiLz48cGF0aCBpZD0iRmlsbC01IiBjbGFzcz0iY2xzLTMiIGQ9Ik0yMC44NSwyOS42N2EuNzMuNzMsMCwxLDEsMCwxLjQ2LjczLjczLDAsMSwxLDAtMS40NiIvPjwvc3ZnPg==;fontFamily=IBM Plex Sans;fontSource=fonts%2FIBMPlexSans-Regular.woff;fontSize=14;labelPosition=center;verticalLabelPosition=bottom;align=center;verticalAlign=top;spacingTop=-7;" vertex="1" parent="1">
          <mxGeometry x="1210" y="890" width="48" height="48" as="geometry" />
        </mxCell>
        <mxCell id="MP2px9YScLDvGAfy4hZi-92" style="edgeStyle=orthogonalEdgeStyle;rounded=0;orthogonalLoop=1;jettySize=auto;html=1;entryX=0;entryY=0.75;entryDx=0;entryDy=0;exitX=1;exitY=0.5;exitDx=0;exitDy=0;" edge="1" parent="1" source="MP2px9YScLDvGAfy4hZi-78" target="MP2px9YScLDvGAfy4hZi-73">
          <mxGeometry relative="1" as="geometry">
            <mxPoint x="380" y="994" as="sourcePoint" />
            <Array as="points">
              <mxPoint x="650" y="1004" />
              <mxPoint x="650" y="926" />
            </Array>
          </mxGeometry>
        </mxCell>
        <mxCell id="MP2px9YScLDvGAfy4hZi-93" value="INSERT INTO XYZ (...) VALUES (...)" style="edgeLabel;html=1;align=left;verticalAlign=middle;resizable=0;points=[];fontStyle=2" vertex="1" connectable="0" parent="MP2px9YScLDvGAfy4hZi-92">
          <mxGeometry x="-0.8108" y="1" relative="1" as="geometry">
            <mxPoint x="-14" y="-13" as="offset" />
          </mxGeometry>
        </mxCell>
        <mxCell id="MP2px9YScLDvGAfy4hZi-78" value="Code Engine Job" style="shape=image;aspect=fixed;image=data:image/svg+xml,PHN2ZyBpZD0iTGF5ZXJfMSIgZGF0YS1uYW1lPSJMYXllciAxIiB4bWxucz0iaHR0cDovL3d3dy53My5vcmcvMjAwMC9zdmciIHZpZXdCb3g9IjAgMCA0OSA0OSI+PGRlZnM+PHN0eWxlPi5jbHMtMXtmaWxsOiNhNTZlZmY7fS5jbHMtMntmaWxsOm5vbmU7fS5jbHMtM3tmaWxsOiNmZmY7ZmlsbC1ydWxlOmV2ZW5vZGQ7fTwvc3R5bGU+PC9kZWZzPjxyZWN0IGNsYXNzPSJjbHMtMSIgeD0iMC41IiB5PSIwLjUiIHdpZHRoPSI0OCIgaGVpZ2h0PSI0OCIgcng9IjgiLz48cmVjdCBjbGFzcz0iY2xzLTIiIHg9IjE0LjUiIHk9IjE0LjUiIHdpZHRoPSIyMCIgaGVpZ2h0PSIyMCIvPjxwYXRoIGlkPSJGaWxsLTEiIGNsYXNzPSJjbHMtMyIgZD0iTTE2Ljc5LDMyLjIxSDMyLjIxVjIxLjQySDE2Ljc5Wm0wLTEyLjM0SDMyLjIxVjE2Ljc5SDE2Ljc5Wm0xNS40Mi00LjYySDE2Ljc5YTEuNTQsMS41NCwwLDAsMC0xLjU0LDEuNTRWMzIuMjFhMS41NCwxLjU0LDAsMCwwLDEuNTQsMS41NEgzMi4yMWExLjU0LDEuNTQsMCwwLDAsMS41NC0xLjU0VjE2Ljc5YTEuNTQsMS41NCwwLDAsMC0xLjU0LTEuNTRaIi8+PHBvbHlnb24gaWQ9IkZpbGwtMyIgY2xhc3M9ImNscy0zIiBwb2ludHM9IjIwLjQ2IDI0LjYzIDIyLjYzIDI2LjgxIDIwLjQ2IDI5IDIxLjU1IDMwLjA4IDI0LjgyIDI2LjgxIDIxLjU1IDIzLjU0IDIwLjQ2IDI0LjYzIi8+PC9zdmc+;fontFamily=IBM Plex Sans;fontSource=fonts%2FIBMPlexSans-Regular.woff;fontSize=14;labelPosition=center;verticalLabelPosition=bottom;align=center;verticalAlign=top;spacingTop=-7;" vertex="1" parent="1">
          <mxGeometry x="330" y="980" width="48" height="48" as="geometry" />
        </mxCell>
        <mxCell id="MP2px9YScLDvGAfy4hZi-112" style="edgeStyle=orthogonalEdgeStyle;rounded=0;orthogonalLoop=1;jettySize=auto;html=1;exitX=1;exitY=0.5;exitDx=0;exitDy=0;entryX=0;entryY=0.5;entryDx=0;entryDy=0;" edge="1" parent="1" source="MP2px9YScLDvGAfy4hZi-83" target="MP2px9YScLDvGAfy4hZi-84">
          <mxGeometry relative="1" as="geometry" />
        </mxCell>
        <mxCell id="MP2px9YScLDvGAfy4hZi-83" value="Code Engine Function" style="shape=image;aspect=fixed;image=data:image/svg+xml,PHN2ZyBpZD0iTGF5ZXJfMSIgZGF0YS1uYW1lPSJMYXllciAxIiB4bWxucz0iaHR0cDovL3d3dy53My5vcmcvMjAwMC9zdmciIHhtbG5zOnhsaW5rPSJodHRwOi8vd3d3LnczLm9yZy8xOTk5L3hsaW5rIiB2aWV3Qm94PSIwIDAgNDkgNDkiPjxkZWZzPjxzdHlsZT4uY2xzLTF7ZmlsbDojZmZmO2ZpbGwtcnVsZTpldmVub2RkO30uY2xzLTJ7ZmlsbDojYTU2ZWZmO30uY2xzLTN7ZmlsbDpub25lO30uY2xzLTR7bWFzazp1cmwoI21hc2spO308L3N0eWxlPjxtYXNrIGlkPSJtYXNrIiB4PSIxNy4zMyIgeT0iMTUuMTMiIHdpZHRoPSIxMy41NyIgaGVpZ2h0PSIxOC45OSIgbWFza1VuaXRzPSJ1c2VyU3BhY2VPblVzZSI+PGcgaWQ9Im1hc2stMiI+PHBvbHlnb24gaWQ9InBhdGgtMSIgY2xhc3M9ImNscy0xIiBwb2ludHM9IjE3LjMzIDE1LjEzIDMwLjkgMTUuMTMgMzAuOSAzNC4xMyAxNy4zMyAzNC4xMyAxNy4zMyAxNS4xMyIvPjwvZz48L21hc2s+PC9kZWZzPjxyZWN0IGNsYXNzPSJjbHMtMiIgeD0iMC41IiB5PSIwLjUiIHdpZHRoPSI0OCIgaGVpZ2h0PSI0OCIgcng9IjgiLz48cmVjdCBjbGFzcz0iY2xzLTMiIHg9IjE0LjUiIHk9IjE0LjUiIHdpZHRoPSIyMCIgaGVpZ2h0PSIyMCIvPjxwYXRoIGlkPSJGaWxsLTEiIGNsYXNzPSJjbHMtMSIgZD0iTTI5LjkzLDI5LjY1bDEuNzYsMS43Ni0xLjc1LDEuNzUsMSwxLDIuNzEtMi43MkwzMC45LDI4LjdabS01LjgyLDEuNzYsMi43MiwyLjcyLDEtMUwyNiwzMS40MWwxLjc1LTEuNzUtMS0xWiIvPjxnIGNsYXNzPSJjbHMtNCI+PHBhdGggaWQ9IkZpbGwtMiIgY2xhc3M9ImNscy0xIiBkPSJNMjUuNDcsMTYuNzZsMy44LDMuOGgtMy44Wm0tMi43MSwxNkgxOC42OVYxNi40OWg1LjQydjQuMDdhMS4zNSwxLjM1LDAsMCwwLDEuMzYsMS4zNWg0LjA3VjI2SDMwLjlWMjAuNTZhLjYzLjYzLDAsMCwwLS4yMS0uNDhsLTQuNzUtNC43NWEuNjMuNjMsMCwwLDAtLjQ3LS4ySDE4LjY5YTEuMzYsMS4zNiwwLDAsMC0xLjM2LDEuMzZWMzIuNzdhMS4zNywxLjM3LDAsMCwwLDEuMzYsMS4zNmg0LjA3WiIvPjwvZz48L3N2Zz4=;fontSize=14;fontFamily=IBM Plex Sans;fontSource=fonts%2FIBMPlexSans-Regular.woff;spacingTop=-7;labelPosition=center;verticalLabelPosition=bottom;align=center;verticalAlign=top;" vertex="1" parent="1">
          <mxGeometry x="330" y="1190" width="48" height="48" as="geometry" />
        </mxCell>
        <mxCell id="MP2px9YScLDvGAfy4hZi-113" style="edgeStyle=orthogonalEdgeStyle;rounded=0;orthogonalLoop=1;jettySize=auto;html=1;exitX=1;exitY=0.5;exitDx=0;exitDy=0;entryX=0;entryY=0.5;entryDx=0;entryDy=0;" edge="1" parent="1" source="MP2px9YScLDvGAfy4hZi-84" target="MP2px9YScLDvGAfy4hZi-87">
          <mxGeometry relative="1" as="geometry" />
        </mxCell>
        <mxCell id="MP2px9YScLDvGAfy4hZi-84" value="Satellite Connector" style="shape=image;aspect=fixed;image=data:image/svg+xml,PHN2ZyBpZD0iTGF5ZXJfMSIgZGF0YS1uYW1lPSJMYXllciAxIiB4bWxucz0iaHR0cDovL3d3dy53My5vcmcvMjAwMC9zdmciIHhtbG5zOnhsaW5rPSJodHRwOi8vd3d3LnczLm9yZy8xOTk5L3hsaW5rIiB2aWV3Qm94PSIwIDAgNDkgNDkiPjxkZWZzPjxzdHlsZT4uY2xzLTF7ZmlsbDojZmZmO2ZpbGwtcnVsZTpldmVub2RkO30uY2xzLTJ7ZmlsbDojMTk4MDM4O30uY2xzLTN7ZmlsbDpub25lO30uY2xzLTR7bWFzazp1cmwoI21hc2spO30uY2xzLTV7bWFzazp1cmwoI21hc2stMi0yKTt9LmNscy02e21hc2s6dXJsKCNtYXNrLTMpO308L3N0eWxlPjxtYXNrIGlkPSJtYXNrIiB4PSIyNi42NCIgeT0iMjUuOTMiIHdpZHRoPSI2LjgxIiBoZWlnaHQ9IjYuODEiIG1hc2tVbml0cz0idXNlclNwYWNlT25Vc2UiPjxnIGlkPSJtYXNrLTIiPjxwb2x5Z29uIGlkPSJwYXRoLTEiIGNsYXNzPSJjbHMtMSIgcG9pbnRzPSIyNi42NCAyNS45MyAzMy40NSAyNS45MyAzMy40NSAzMi43NCAyNi42NCAzMi43NCAyNi42NCAyNS45MyIvPjwvZz48L21hc2s+PG1hc2sgaWQ9Im1hc2stMi0yIiB4PSIyMy4yMiIgeT0iMjYuNSIgd2lkdGg9IjYuODEiIGhlaWdodD0iNi44MSIgbWFza1VuaXRzPSJ1c2VyU3BhY2VPblVzZSI+PGcgaWQ9Im1hc2stNCI+PHBvbHlnb24gaWQ9InBhdGgtMyIgY2xhc3M9ImNscy0xIiBwb2ludHM9IjIzLjIzIDI2LjUgMzAuMDQgMjYuNSAzMC4wNCAzMy4zMSAyMy4yMyAzMy4zMSAyMy4yMyAyNi41Ii8+PC9nPjwvbWFzaz48bWFzayBpZD0ibWFzay0zIiB4PSIxNS44NyIgeT0iMTUuNjkiIHdpZHRoPSIxNC41MSIgaGVpZ2h0PSIxNS45MyIgbWFza1VuaXRzPSJ1c2VyU3BhY2VPblVzZSI+PGcgaWQ9Im1hc2stNiI+PHBvbHlnb24gaWQ9InBhdGgtNSIgY2xhc3M9ImNscy0xIiBwb2ludHM9IjE1Ljg3IDE1LjY5IDMwLjM4IDE1LjY5IDMwLjM4IDMxLjYxIDE1Ljg3IDMxLjYxIDE1Ljg3IDE1LjY5Ii8+PC9nPjwvbWFzaz48L2RlZnM+PHJlY3QgY2xhc3M9ImNscy0yIiB4PSIwLjUiIHk9IjAuNSIgd2lkdGg9IjQ4IiBoZWlnaHQ9IjQ4Ii8+PHJlY3QgY2xhc3M9ImNscy0zIiB4PSIxNC41IiB5PSIxNC41IiB3aWR0aD0iMjAiIGhlaWdodD0iMjAiLz48ZyBjbGFzcz0iY2xzLTQiPjxwYXRoIGlkPSJGaWxsLTEiIGNsYXNzPSJjbHMtMSIgZD0iTTMyLjg4LDI5LjMyLDMwLDMyLjE3YTIsMiwwLDAsMS0yLjgyLTIuODJsLjgxLjgxYS44NS44NSwwLDAsMCwxLjIxLDEuMmwyLjg0LTIuODRhLjg2Ljg2LDAsMCwwLTEuMjEtMS4yMWwtLjgtLjhhMiwyLDAsMCwxLDIuODIsMi44MVoiLz48L2c+PGcgY2xhc3M9ImNscy01Ij48cGF0aCBpZD0iRmlsbC00IiBjbGFzcz0iY2xzLTEiIGQ9Ik0yNi42NSwyNy4wOCwyMy44LDI5LjkyYTIsMiwwLDAsMCwyLjgyLDIuODJsLS44MS0uODFhLjg1Ljg1LDAsMCwxLTEuMi0xLjJsMi44NC0yLjg1YS44Ni44NiwwLDAsMSwxLjIxLDEuMjFsLjguOGEyLDIsMCwwLDAtMi44MS0yLjgxIi8+PC9nPjxwYXRoIGlkPSJGaWxsLTciIGNsYXNzPSJjbHMtMSIgZD0iTTE5LjI0LDI1LjM2YTEuMTQsMS4xNCwwLDEsMS0xLjE0LDEuMTMsMS4xNCwxLjE0LDAsMCwxLDEuMTQtMS4xMyIvPjxwYXRoIGlkPSJGaWxsLTkiIGNsYXNzPSJjbHMtMSIgZD0iTTIzLjIyLDIzLjA4YTEuMTQsMS4xNCwwLDEsMCwxLjE0LDEuMTQsMS4xNCwxLjE0LDAsMCwwLTEuMTQtMS4xNG0wLDMuNDFhMi4yOCwyLjI4LDAsMSwxLDIuMjctMi4yNywyLjI3LDIuMjcsMCwwLDEtMi4yNywyLjI3Ii8+PHBhdGggaWQ9IkZpbGwtMTEiIGNsYXNzPSJjbHMtMSIgZD0iTTI3LjIsMjAuODFhMS4xNCwxLjE0LDAsMSwxLTEuMTQsMS4xMywxLjE0LDEuMTQsMCwwLDEsMS4xNC0xLjEzIi8+PGcgY2xhc3M9ImNscy02Ij48cGF0aCBpZD0iRmlsbC0xMyIgY2xhc3M9ImNscy0xIiBkPSJNMjEuNzMsMzAuNjMsMTcsMjcuODdWMjAuNTZsNi4yNS0zLjY1LDYuNTQsMy44Mi41OC0xLTYuODMtNGEuNTguNTgsMCwwLDAtLjU3LDBsLTYuODMsNGEuNTYuNTYsMCwwLDAtLjI4LjQ5djhhLjU4LjU4LDAsMCwwLC4yOC40OWw1LDIuOTJaIi8+PC9nPjwvc3ZnPg==;fontSize=14;fontFamily=IBM Plex Sans;fontSource=fonts%2FIBMPlexSans-Regular.woff;spacingTop=-7;labelPosition=center;verticalLabelPosition=bottom;align=center;verticalAlign=top;" vertex="1" parent="1">
          <mxGeometry x="820" y="1190" width="48" height="48" as="geometry" />
        </mxCell>
        <mxCell id="MP2px9YScLDvGAfy4hZi-87" value="NGINX" style="shape=image;aspect=fixed;image=data:image/svg+xml,PHN2ZyBpZD0iTGF5ZXJfMSIgZGF0YS1uYW1lPSJMYXllciAxIiB4bWxucz0iaHR0cDovL3d3dy53My5vcmcvMjAwMC9zdmciIHZpZXdCb3g9IjAgMCA0OSA0OSI+PGRlZnM+PHN0eWxlPi5jbHMtMXtmaWxsOiNhNTZlZmY7fS5jbHMtMntmaWxsOiNmZmY7fS5jbHMtM3tmaWxsOm5vbmU7fTwvc3R5bGU+PC9kZWZzPjxyZWN0IGNsYXNzPSJjbHMtMSIgeD0iMC41IiB5PSIwLjUiIHdpZHRoPSI0OCIgaGVpZ2h0PSI0OCIgcng9IjgiLz48cGF0aCBjbGFzcz0iY2xzLTIiIGQ9Ik0zMiwyNC41djMuNzVIMTd2LTEwaDcuNVYxN0gxN2ExLjI1LDEuMjUsMCwwLDAtMS4yNSwxLjI1djEwQTEuMjUsMS4yNSwwLDAsMCwxNywyOS41aDVWMzJIMTkuNXYxLjI1aDEwVjMySDI3VjI5LjVoNWExLjI1LDEuMjUsMCwwLDAsMS4yNS0xLjI1VjI0LjVaTTI1Ljc1LDMyaC0yLjVWMjkuNWgyLjVaIi8+PHJlY3QgY2xhc3M9ImNscy0yIiB4PSIzMC43NSIgeT0iMTUuNzUiIHdpZHRoPSIyLjUiIGhlaWdodD0iMi41Ii8+PHJlY3QgY2xhc3M9ImNscy0yIiB4PSIzMC43NSIgeT0iMTkuNSIgd2lkdGg9IjIuNSIgaGVpZ2h0PSIyLjUiLz48cmVjdCBjbGFzcz0iY2xzLTIiIHg9IjI3IiB5PSIxNS43NSIgd2lkdGg9IjIuNSIgaGVpZ2h0PSIyLjUiLz48cmVjdCBjbGFzcz0iY2xzLTIiIHg9IjI3IiB5PSIxOS41IiB3aWR0aD0iMi41IiBoZWlnaHQ9IjIuNSIvPjxyZWN0IGNsYXNzPSJjbHMtMyIgeD0iMTQuNSIgeT0iMTQuNSIgd2lkdGg9IjIwIiBoZWlnaHQ9IjIwIi8+PC9zdmc+;fontFamily=IBM Plex Sans;fontSource=fonts%2FIBMPlexSans-Regular.woff;labelPosition=center;verticalLabelPosition=bottom;align=center;verticalAlign=top;spacingTop=-7;fontSize=14;" vertex="1" parent="1">
          <mxGeometry x="1217" y="1190" width="48" height="48" as="geometry" />
        </mxCell>
        <mxCell id="MP2px9YScLDvGAfy4hZi-98" style="edgeStyle=orthogonalEdgeStyle;rounded=0;orthogonalLoop=1;jettySize=auto;html=1;exitX=1;exitY=0.5;exitDx=0;exitDy=0;entryX=0;entryY=0.5;entryDx=0;entryDy=0;" edge="1" parent="1" source="MP2px9YScLDvGAfy4hZi-97" target="MP2px9YScLDvGAfy4hZi-72">
          <mxGeometry relative="1" as="geometry" />
        </mxCell>
        <mxCell id="MP2px9YScLDvGAfy4hZi-106" value="https://my-custom-domain.com" style="edgeLabel;html=1;align=left;verticalAlign=middle;resizable=0;points=[];fontStyle=2" vertex="1" connectable="0" parent="MP2px9YScLDvGAfy4hZi-98">
          <mxGeometry x="0.1664" y="-1" relative="1" as="geometry">
            <mxPoint x="-121" y="-15" as="offset" />
          </mxGeometry>
        </mxCell>
        <mxCell id="MP2px9YScLDvGAfy4hZi-97" value="End-user&#xa;(browser)" style="shape=image;aspect=fixed;image=data:image/svg+xml,PHN2ZyBpZD0iTGF5ZXJfMSIgZGF0YS1uYW1lPSJMYXllciAxIiB4bWxucz0iaHR0cDovL3d3dy53My5vcmcvMjAwMC9zdmciIHZpZXdCb3g9IjAgMCA0OSA0OSI+PGRlZnM+PHN0eWxlPi5jbHMtMXtmaWxsOm5vbmU7fS5jbHMtMntmaWxsOiNmZmY7ZmlsbC1ydWxlOmV2ZW5vZGQ7fTwvc3R5bGU+PC9kZWZzPjxyZWN0IHg9IjAuNSIgeT0iMC41IiB3aWR0aD0iNDgiIGhlaWdodD0iNDgiIHJ4PSIyNCIvPjxyZWN0IGNsYXNzPSJjbHMtMSIgeD0iMTQuNSIgeT0iMTQuNSIgd2lkdGg9IjIwIiBoZWlnaHQ9IjIwIi8+PHBhdGggaWQ9IkZpbGwtMSIgY2xhc3M9ImNscy0yIiBkPSJNMTcuODcsMjcuODFIMzEuMTNWMTguNTRIMTcuODdabTEzLjI2LDEuMzNIMTcuODdhMS4zMywxLjMzLDAsMCwxLTEuMzItMS4zM1YxOC41NGExLjMzLDEuMzMsMCwwLDEsMS4zMi0xLjMzSDMxLjEzYTEuMzMsMS4zMywwLDAsMSwxLjMyLDEuMzN2OS4yN2ExLjMzLDEuMzMsMCwwLDEtMS4zMiwxLjMzWiIvPjxwb2x5Z29uIGlkPSJGaWxsLTMiIGNsYXNzPSJjbHMtMiIgcG9pbnRzPSIxNS4yMiAzMS43OSAzMy43OCAzMS43OSAzMy43OCAzMC40NiAxNS4yMiAzMC40NiAxNS4yMiAzMS43OSIvPjwvc3ZnPg==;fontFamily=IBM Plex Sans;fontSource=fonts%2FIBMPlexSans-Regular.woff;spacingTop=-7;labelPosition=center;verticalLabelPosition=bottom;align=center;verticalAlign=top;fontSize=14;" vertex="1" parent="1">
          <mxGeometry x="20" y="810" width="48" height="48" as="geometry" />
        </mxCell>
        <mxCell id="MP2px9YScLDvGAfy4hZi-100" value="https://&amp;lt;app-name&amp;gt;.&amp;lt;id&amp;gt;.us-south.codeengine.appdomain.cloud:443" style="edgeLabel;html=1;align=left;verticalAlign=middle;resizable=0;points=[];fontStyle=1;fontColor=#000099;" vertex="1" connectable="0" parent="1">
          <mxGeometry x="189.99985029411908" y="887.9959999887974" as="geometry" />
        </mxCell>
        <mxCell id="MP2px9YScLDvGAfy4hZi-102" style="edgeStyle=orthogonalEdgeStyle;rounded=0;orthogonalLoop=1;jettySize=auto;html=1;exitX=1;exitY=0.5;exitDx=0;exitDy=0;entryX=0;entryY=0.5;entryDx=0;entryDy=0;" edge="1" parent="1" source="MP2px9YScLDvGAfy4hZi-101" target="MP2px9YScLDvGAfy4hZi-78">
          <mxGeometry relative="1" as="geometry" />
        </mxCell>
        <mxCell id="MP2px9YScLDvGAfy4hZi-101" value="End-user&#xa;(CLI/API)" style="shape=image;aspect=fixed;image=data:image/svg+xml,PHN2ZyBpZD0iTGF5ZXJfMSIgZGF0YS1uYW1lPSJMYXllciAxIiB4bWxucz0iaHR0cDovL3d3dy53My5vcmcvMjAwMC9zdmciIHZpZXdCb3g9IjAgMCA0OSA0OSI+PGRlZnM+PHN0eWxlPi5jbHMtMXtmaWxsOm5vbmU7fS5jbHMtMntmaWxsOiNmZmY7ZmlsbC1ydWxlOmV2ZW5vZGQ7fTwvc3R5bGU+PC9kZWZzPjxyZWN0IHg9IjAuNSIgeT0iMC41IiB3aWR0aD0iNDgiIGhlaWdodD0iNDgiIHJ4PSIyNCIvPjxyZWN0IGNsYXNzPSJjbHMtMSIgeD0iMTQuNSIgeT0iMTQuNSIgd2lkdGg9IjIwIiBoZWlnaHQ9IjIwIi8+PHBhdGggaWQ9IkZpbGwtMSIgY2xhc3M9ImNscy0yIiBkPSJNMTcuODcsMjcuODFIMzEuMTNWMTguNTRIMTcuODdabTEzLjI2LDEuMzNIMTcuODdhMS4zMywxLjMzLDAsMCwxLTEuMzItMS4zM1YxOC41NGExLjMzLDEuMzMsMCwwLDEsMS4zMi0xLjMzSDMxLjEzYTEuMzMsMS4zMywwLDAsMSwxLjMyLDEuMzN2OS4yN2ExLjMzLDEuMzMsMCwwLDEtMS4zMiwxLjMzWiIvPjxwb2x5Z29uIGlkPSJGaWxsLTMiIGNsYXNzPSJjbHMtMiIgcG9pbnRzPSIxNS4yMiAzMS43OSAzMy43OCAzMS43OSAzMy43OCAzMC40NiAxNS4yMiAzMC40NiAxNS4yMiAzMS43OSIvPjwvc3ZnPg==;fontFamily=IBM Plex Sans;fontSource=fonts%2FIBMPlexSans-Regular.woff;spacingTop=-7;labelPosition=center;verticalLabelPosition=bottom;align=center;verticalAlign=top;fontSize=14;" vertex="1" parent="1">
          <mxGeometry x="20" y="980" width="48" height="48" as="geometry" />
        </mxCell>
        <mxCell id="MP2px9YScLDvGAfy4hZi-103" value="https://api.us-south.codeengine.cloud.ibm.com:443" style="edgeLabel;html=1;align=left;verticalAlign=middle;resizable=0;points=[];fontStyle=1;fontColor=#000099;" vertex="1" connectable="0" parent="1">
          <mxGeometry x="209.99985029411908" y="1054.9959999887974" as="geometry" />
        </mxCell>
        <mxCell id="MP2px9YScLDvGAfy4hZi-108" value="ibmcloud ce jobrun submit" style="edgeLabel;html=1;align=left;verticalAlign=middle;resizable=0;points=[];fontStyle=2" vertex="1" connectable="0" parent="1">
          <mxGeometry x="99.99999999999996" y="990" as="geometry" />
        </mxCell>
        <mxCell id="MP2px9YScLDvGAfy4hZi-109" value="postgres://10.243.0.4:5432" style="edgeLabel;html=1;align=left;verticalAlign=middle;resizable=0;points=[];fontStyle=1;fontColor=#000099;" vertex="1" connectable="0" parent="1">
          <mxGeometry x="1170.0019047619048" y="964.9999999999998" as="geometry" />
        </mxCell>
        <mxCell id="MP2px9YScLDvGAfy4hZi-111" style="edgeStyle=orthogonalEdgeStyle;rounded=0;orthogonalLoop=1;jettySize=auto;html=1;exitX=1;exitY=0.5;exitDx=0;exitDy=0;entryX=0;entryY=0.5;entryDx=0;entryDy=0;" edge="1" parent="1" source="MP2px9YScLDvGAfy4hZi-110" target="MP2px9YScLDvGAfy4hZi-83">
          <mxGeometry relative="1" as="geometry" />
        </mxCell>
        <mxCell id="MP2px9YScLDvGAfy4hZi-110" value="End-user&#xa;(browser)" style="shape=image;aspect=fixed;image=data:image/svg+xml,PHN2ZyBpZD0iTGF5ZXJfMSIgZGF0YS1uYW1lPSJMYXllciAxIiB4bWxucz0iaHR0cDovL3d3dy53My5vcmcvMjAwMC9zdmciIHZpZXdCb3g9IjAgMCA0OSA0OSI+PGRlZnM+PHN0eWxlPi5jbHMtMXtmaWxsOm5vbmU7fS5jbHMtMntmaWxsOiNmZmY7ZmlsbC1ydWxlOmV2ZW5vZGQ7fTwvc3R5bGU+PC9kZWZzPjxyZWN0IHg9IjAuNSIgeT0iMC41IiB3aWR0aD0iNDgiIGhlaWdodD0iNDgiIHJ4PSIyNCIvPjxyZWN0IGNsYXNzPSJjbHMtMSIgeD0iMTQuNSIgeT0iMTQuNSIgd2lkdGg9IjIwIiBoZWlnaHQ9IjIwIi8+PHBhdGggaWQ9IkZpbGwtMSIgY2xhc3M9ImNscy0yIiBkPSJNMTcuODcsMjcuODFIMzEuMTNWMTguNTRIMTcuODdabTEzLjI2LDEuMzNIMTcuODdhMS4zMywxLjMzLDAsMCwxLTEuMzItMS4zM1YxOC41NGExLjMzLDEuMzMsMCwwLDEsMS4zMi0xLjMzSDMxLjEzYTEuMzMsMS4zMywwLDAsMSwxLjMyLDEuMzN2OS4yN2ExLjMzLDEuMzMsMCwwLDEtMS4zMiwxLjMzWiIvPjxwb2x5Z29uIGlkPSJGaWxsLTMiIGNsYXNzPSJjbHMtMiIgcG9pbnRzPSIxNS4yMiAzMS43OSAzMy43OCAzMS43OSAzMy43OCAzMC40NiAxNS4yMiAzMC40NiAxNS4yMiAzMS43OSIvPjwvc3ZnPg==;fontFamily=IBM Plex Sans;fontSource=fonts%2FIBMPlexSans-Regular.woff;spacingTop=-7;labelPosition=center;verticalLabelPosition=bottom;align=center;verticalAlign=top;fontSize=14;" vertex="1" parent="1">
          <mxGeometry x="20" y="1190" width="48" height="48" as="geometry" />
        </mxCell>
        <mxCell id="MP2px9YScLDvGAfy4hZi-114" value="https://10.243.0.4:443" style="edgeLabel;html=1;align=left;verticalAlign=middle;resizable=0;points=[];fontStyle=1;fontColor=#000099;" vertex="1" connectable="0" parent="1">
          <mxGeometry x="1190.0019047619048" y="1269.9999999999998" as="geometry" />
        </mxCell>
        <mxCell id="MP2px9YScLDvGAfy4hZi-115" value="https://c-01.private.us-south.link.satellite.cloud.ibm.com:33008" style="edgeLabel;html=1;align=left;verticalAlign=middle;resizable=0;points=[];fontStyle=1;fontColor=#000099;" vertex="1" connectable="0" parent="1">
          <mxGeometry x="690" y="1269.9999999999998" as="geometry" />
        </mxCell>
        <mxCell id="MP2px9YScLDvGAfy4hZi-116" value="https://&amp;lt;func-name&amp;gt;.&amp;lt;id&amp;gt;.us-south.codeengine.appdomain.cloud:443" style="edgeLabel;html=1;align=left;verticalAlign=middle;resizable=0;points=[];fontStyle=1;fontColor=#000099;" vertex="1" connectable="0" parent="1">
          <mxGeometry x="169.99985029411908" y="1269.9959999887974" as="geometry" />
        </mxCell>
        <mxCell id="MP2px9YScLDvGAfy4hZi-117" value="https://my-custom-domain.com" style="edgeLabel;html=1;align=left;verticalAlign=middle;resizable=0;points=[];fontStyle=2" vertex="1" connectable="0" parent="1">
          <mxGeometry x="100.00000000000023" y="1200" as="geometry" />
        </mxCell>
        <mxCell id="MP2px9YScLDvGAfy4hZi-118" value="http://c-01.private.us-south.link.satellite.cloud.ibm.com:33008" style="edgeLabel;html=1;align=left;verticalAlign=middle;resizable=0;points=[];fontStyle=2" vertex="1" connectable="0" parent="1">
          <mxGeometry x="414.0000000000002" y="1200" as="geometry" />
        </mxCell>
      </root>
    </mxGraphModel>
  </diagram>
</mxfile>
